<svg xmlns="http://www.w3.org/2000/svg" xmlns:xlink="http://www.w3.org/1999/xlink" width="1080" zoomAndPan="magnify" viewBox="0 0 810 809.999993" height="1080" preserveAspectRatio="xMidYMid meet" version="1.0"><rect x="-81" width="972" fill="#ffffff" y="-80.999999" height="971.999992" fill-opacity="1"/><rect x="-81" width="972" fill="#fffcf4" y="-80.999999" height="971.999992" fill-opacity="1"/><path fill="#244db6" d="M 810.039062 810.039062 L 0.0390625 810.039062 L 0.0390625 0.0390625 L 810.039062 0.0390625 Z M 1.160156 808.914062 L 808.914062 808.914062 L 808.914062 1.160156 L 1.160156 1.160156 Z M 1.160156 808.914062 " fill-opacity="1" fill-rule="nonzero"/><path fill="#244db6" d="M 0.597656 735.382812 L 809.476562 735.382812 L 809.476562 736.503906 L 0.597656 736.503906 Z M 0.597656 735.382812 " fill-opacity="1" fill-rule="nonzero"/><path fill="#244db6" d="M 0.597656 661.847656 L 809.476562 661.847656 L 809.476562 662.972656 L 0.597656 662.972656 Z M 0.597656 661.847656 " fill-opacity="1" fill-rule="nonzero"/><path fill="#244db6" d="M 0.597656 588.308594 L 809.476562 588.308594 L 809.476562 589.429688 L 0.597656 589.429688 Z M 0.597656 588.308594 " fill-opacity="1" fill-rule="nonzero"/><path fill="#244db6" d="M 0.597656 514.773438 L 809.476562 514.773438 L 809.476562 515.898438 L 0.597656 515.898438 Z M 0.597656 514.773438 " fill-opacity="1" fill-rule="nonzero"/><path fill="#244db6" d="M 0.597656 441.242188 L 809.476562 441.242188 L 809.476562 442.367188 L 0.597656 442.367188 Z M 0.597656 441.242188 " fill-opacity="1" fill-rule="nonzero"/><path fill="#244db6" d="M 0.597656 367.710938 L 809.476562 367.710938 L 809.476562 368.832031 L 0.597656 368.832031 Z M 0.597656 367.710938 " fill-opacity="1" fill-rule="nonzero"/><path fill="#244db6" d="M 0.597656 294.175781 L 809.476562 294.175781 L 809.476562 295.300781 L 0.597656 295.300781 Z M 0.597656 294.175781 " fill-opacity="1" fill-rule="nonzero"/><path fill="#244db6" d="M 0.597656 220.644531 L 809.476562 220.644531 L 809.476562 221.765625 L 0.597656 221.765625 Z M 0.597656 220.644531 " fill-opacity="1" fill-rule="nonzero"/><path fill="#244db6" d="M 0.597656 147.101562 L 809.476562 147.101562 L 809.476562 148.226562 L 0.597656 148.226562 Z M 0.597656 147.101562 " fill-opacity="1" fill-rule="nonzero"/><path fill="#244db6" d="M 0.597656 73.570312 L 809.476562 73.570312 L 809.476562 74.695312 L 0.597656 74.695312 Z M 0.597656 73.570312 " fill-opacity="1" fill-rule="nonzero"/><path fill="#244db6" d="M 735.382812 0.597656 L 736.503906 0.597656 L 736.503906 809.476562 L 735.382812 809.476562 Z M 735.382812 0.597656 " fill-opacity="1" fill-rule="nonzero"/><path fill="#244db6" d="M 661.847656 0.597656 L 662.972656 0.597656 L 662.972656 809.476562 L 661.847656 809.476562 Z M 661.847656 0.597656 " fill-opacity="1" fill-rule="nonzero"/><path fill="#244db6" d="M 588.308594 0.597656 L 589.429688 0.597656 L 589.429688 809.476562 L 588.308594 809.476562 Z M 588.308594 0.597656 " fill-opacity="1" fill-rule="nonzero"/><path fill="#244db6" d="M 514.773438 0.597656 L 515.898438 0.597656 L 515.898438 809.476562 L 514.773438 809.476562 Z M 514.773438 0.597656 " fill-opacity="1" fill-rule="nonzero"/><path fill="#244db6" d="M 441.242188 0.597656 L 442.367188 0.597656 L 442.367188 809.476562 L 441.242188 809.476562 Z M 441.242188 0.597656 " fill-opacity="1" fill-rule="nonzero"/><path fill="#244db6" d="M 367.710938 0.597656 L 368.832031 0.597656 L 368.832031 809.476562 L 367.710938 809.476562 Z M 367.710938 0.597656 " fill-opacity="1" fill-rule="nonzero"/><path fill="#244db6" d="M 294.175781 0.597656 L 295.300781 0.597656 L 295.300781 809.476562 L 294.175781 809.476562 Z M 294.175781 0.597656 " fill-opacity="1" fill-rule="nonzero"/><path fill="#244db6" d="M 220.644531 0.597656 L 221.765625 0.597656 L 221.765625 809.476562 L 220.644531 809.476562 Z M 220.644531 0.597656 " fill-opacity="1" fill-rule="nonzero"/><path fill="#244db6" d="M 147.101562 0.597656 L 148.226562 0.597656 L 148.226562 809.476562 L 147.101562 809.476562 Z M 147.101562 0.597656 " fill-opacity="1" fill-rule="nonzero"/><path fill="#244db6" d="M 73.570312 0.597656 L 74.695312 0.597656 L 74.695312 809.476562 L 73.570312 809.476562 Z M 73.570312 0.597656 " fill-opacity="1" fill-rule="nonzero"/></svg>