<svg xmlns="http://www.w3.org/2000/svg" xmlns:xlink="http://www.w3.org/1999/xlink" width="1080" zoomAndPan="magnify" viewBox="0 0 810 809.999993" height="1080" preserveAspectRatio="xMidYMid meet" version="1.0"><defs><clipPath id="5d93afd53a"><path d="M 0 0 L 405 0 L 405 405 L 0 405 Z M 0 0 " clip-rule="nonzero"/></clipPath><clipPath id="12124292c1"><path d="M 0 404.25 L 405 404.25 L 405 809.25 L 0 809.25 Z M 0 404.25 " clip-rule="nonzero"/></clipPath><clipPath id="9d601faae1"><path d="M 367 404.25 L 369 404.25 L 369 809 L 367 809 Z M 367 404.25 " clip-rule="nonzero"/></clipPath><clipPath id="73a4c1335c"><path d="M 330 404.25 L 332 404.25 L 332 809 L 330 809 Z M 330 404.25 " clip-rule="nonzero"/></clipPath><clipPath id="0b68c23ce6"><path d="M 294 404.25 L 295 404.25 L 295 809 L 294 809 Z M 294 404.25 " clip-rule="nonzero"/></clipPath><clipPath id="0248c4591f"><path d="M 257 404.25 L 258 404.25 L 258 809 L 257 809 Z M 257 404.25 " clip-rule="nonzero"/></clipPath><clipPath id="a4806ba593"><path d="M 220 404.25 L 222 404.25 L 222 809 L 220 809 Z M 220 404.25 " clip-rule="nonzero"/></clipPath><clipPath id="f4111ee9f8"><path d="M 183 404.25 L 185 404.25 L 185 809 L 183 809 Z M 183 404.25 " clip-rule="nonzero"/></clipPath><clipPath id="19465a76af"><path d="M 147 404.25 L 148 404.25 L 148 809 L 147 809 Z M 147 404.25 " clip-rule="nonzero"/></clipPath><clipPath id="61fb1a19a7"><path d="M 110 404.25 L 111 404.25 L 111 809 L 110 809 Z M 110 404.25 " clip-rule="nonzero"/></clipPath><clipPath id="b39297620c"><path d="M 73 404.25 L 75 404.25 L 75 809 L 73 809 Z M 73 404.25 " clip-rule="nonzero"/></clipPath><clipPath id="9698612f7f"><path d="M 36 404.25 L 38 404.25 L 38 809 L 36 809 Z M 36 404.25 " clip-rule="nonzero"/></clipPath><clipPath id="25209ee897"><path d="M 404.25 404.25 L 809.25 404.25 L 809.25 809.25 L 404.25 809.25 Z M 404.25 404.25 " clip-rule="nonzero"/></clipPath><clipPath id="e9bd6006d7"><path d="M 404.25 771 L 809 771 L 809 773 L 404.25 773 Z M 404.25 771 " clip-rule="nonzero"/></clipPath><clipPath id="cef2cbdbca"><path d="M 404.25 735 L 809 735 L 809 736 L 404.25 736 Z M 404.25 735 " clip-rule="nonzero"/></clipPath><clipPath id="51cb3dcea9"><path d="M 404.25 698 L 809 698 L 809 699 L 404.25 699 Z M 404.25 698 " clip-rule="nonzero"/></clipPath><clipPath id="1a90f19ad1"><path d="M 404.25 661 L 809 661 L 809 663 L 404.25 663 Z M 404.25 661 " clip-rule="nonzero"/></clipPath><clipPath id="a81ee20567"><path d="M 404.25 624 L 809 624 L 809 626 L 404.25 626 Z M 404.25 624 " clip-rule="nonzero"/></clipPath><clipPath id="850b256d84"><path d="M 404.25 588 L 809 588 L 809 589 L 404.25 589 Z M 404.25 588 " clip-rule="nonzero"/></clipPath><clipPath id="a19feb476d"><path d="M 404.25 551 L 809 551 L 809 552 L 404.25 552 Z M 404.25 551 " clip-rule="nonzero"/></clipPath><clipPath id="a0b139a479"><path d="M 404.25 514 L 809 514 L 809 516 L 404.25 516 Z M 404.25 514 " clip-rule="nonzero"/></clipPath><clipPath id="f4332b74be"><path d="M 404.25 477 L 809 477 L 809 479 L 404.25 479 Z M 404.25 477 " clip-rule="nonzero"/></clipPath><clipPath id="45dbf5e2ea"><path d="M 404.25 441 L 809 441 L 809 442 L 404.25 442 Z M 404.25 441 " clip-rule="nonzero"/></clipPath><clipPath id="cf729402de"><path d="M 771 404.25 L 773 404.25 L 773 809 L 771 809 Z M 771 404.25 " clip-rule="nonzero"/></clipPath><clipPath id="6349419db2"><path d="M 735 404.25 L 736 404.25 L 736 809 L 735 809 Z M 735 404.25 " clip-rule="nonzero"/></clipPath><clipPath id="5d2d701fd6"><path d="M 698 404.25 L 699 404.25 L 699 809 L 698 809 Z M 698 404.25 " clip-rule="nonzero"/></clipPath><clipPath id="7525b5e3bd"><path d="M 661 404.25 L 663 404.25 L 663 809 L 661 809 Z M 661 404.25 " clip-rule="nonzero"/></clipPath><clipPath id="f35f566832"><path d="M 624 404.25 L 626 404.25 L 626 809 L 624 809 Z M 624 404.25 " clip-rule="nonzero"/></clipPath><clipPath id="f948eaa748"><path d="M 588 404.25 L 589 404.25 L 589 809 L 588 809 Z M 588 404.25 " clip-rule="nonzero"/></clipPath><clipPath id="fc7ca63d62"><path d="M 551 404.25 L 552 404.25 L 552 809 L 551 809 Z M 551 404.25 " clip-rule="nonzero"/></clipPath><clipPath id="182cb6d383"><path d="M 514 404.25 L 516 404.25 L 516 809 L 514 809 Z M 514 404.25 " clip-rule="nonzero"/></clipPath><clipPath id="7e779f96fe"><path d="M 477 404.25 L 479 404.25 L 479 809 L 477 809 Z M 477 404.25 " clip-rule="nonzero"/></clipPath><clipPath id="b66bcfbbed"><path d="M 441 404.25 L 442 404.25 L 442 809 L 441 809 Z M 441 404.25 " clip-rule="nonzero"/></clipPath><clipPath id="5c12829bdb"><path d="M 404.25 0 L 809.25 0 L 809.25 405 L 404.25 405 Z M 404.25 0 " clip-rule="nonzero"/></clipPath><clipPath id="3ceee29c33"><path d="M 404.25 367 L 809 367 L 809 369 L 404.25 369 Z M 404.25 367 " clip-rule="nonzero"/></clipPath><clipPath id="5ea62e4c95"><path d="M 404.25 330 L 809 330 L 809 332 L 404.25 332 Z M 404.25 330 " clip-rule="nonzero"/></clipPath><clipPath id="89b1b16f03"><path d="M 404.25 294 L 809 294 L 809 295 L 404.25 295 Z M 404.25 294 " clip-rule="nonzero"/></clipPath><clipPath id="fac2afd0dd"><path d="M 404.25 257 L 809 257 L 809 258 L 404.25 258 Z M 404.25 257 " clip-rule="nonzero"/></clipPath><clipPath id="cf527b0800"><path d="M 404.25 220 L 809 220 L 809 222 L 404.25 222 Z M 404.25 220 " clip-rule="nonzero"/></clipPath><clipPath id="6e24ca1a10"><path d="M 404.25 183 L 809 183 L 809 185 L 404.25 185 Z M 404.25 183 " clip-rule="nonzero"/></clipPath><clipPath id="08226e66c0"><path d="M 404.25 147 L 809 147 L 809 148 L 404.25 148 Z M 404.25 147 " clip-rule="nonzero"/></clipPath><clipPath id="c556af0191"><path d="M 404.25 110 L 809 110 L 809 111 L 404.25 111 Z M 404.25 110 " clip-rule="nonzero"/></clipPath><clipPath id="c3f832b48f"><path d="M 404.25 73 L 809 73 L 809 75 L 404.25 75 Z M 404.25 73 " clip-rule="nonzero"/></clipPath><clipPath id="3914afe742"><path d="M 404.25 36 L 809 36 L 809 38 L 404.25 38 Z M 404.25 36 " clip-rule="nonzero"/></clipPath></defs><rect x="-81" width="972" fill="#ffffff" y="-80.999999" height="971.999992" fill-opacity="1"/><rect x="-81" width="972" fill="#fffcf4" y="-80.999999" height="971.999992" fill-opacity="1"/><g clip-path="url(#5d93afd53a)"><path fill="#244db6" d="M 405.019531 405.019531 L 0.0195312 405.019531 L 0.0195312 0.0195312 L 405.019531 0.0195312 Z M 0.582031 404.457031 L 404.457031 404.457031 L 404.457031 0.582031 L 0.582031 0.582031 Z M 0.582031 404.457031 " fill-opacity="1" fill-rule="nonzero"/></g><path fill="#244db6" d="M 0.300781 367.691406 L 404.738281 367.691406 L 404.738281 368.253906 L 0.300781 368.253906 Z M 0.300781 367.691406 " fill-opacity="1" fill-rule="nonzero"/><path fill="#244db6" d="M 0.300781 330.925781 L 404.738281 330.925781 L 404.738281 331.484375 L 0.300781 331.484375 Z M 0.300781 330.925781 " fill-opacity="1" fill-rule="nonzero"/><path fill="#244db6" d="M 0.300781 294.152344 L 404.738281 294.152344 L 404.738281 294.714844 L 0.300781 294.714844 Z M 0.300781 294.152344 " fill-opacity="1" fill-rule="nonzero"/><path fill="#244db6" d="M 0.300781 257.386719 L 404.738281 257.386719 L 404.738281 257.949219 L 0.300781 257.949219 Z M 0.300781 257.386719 " fill-opacity="1" fill-rule="nonzero"/><path fill="#244db6" d="M 0.300781 220.621094 L 404.738281 220.621094 L 404.738281 221.183594 L 0.300781 221.183594 Z M 0.300781 220.621094 " fill-opacity="1" fill-rule="nonzero"/><path fill="#244db6" d="M 0.300781 183.855469 L 404.738281 183.855469 L 404.738281 184.417969 L 0.300781 184.417969 Z M 0.300781 183.855469 " fill-opacity="1" fill-rule="nonzero"/><path fill="#244db6" d="M 0.300781 147.089844 L 404.738281 147.089844 L 404.738281 147.648438 L 0.300781 147.648438 Z M 0.300781 147.089844 " fill-opacity="1" fill-rule="nonzero"/><path fill="#244db6" d="M 0.300781 110.320312 L 404.738281 110.320312 L 404.738281 110.882812 L 0.300781 110.882812 Z M 0.300781 110.320312 " fill-opacity="1" fill-rule="nonzero"/><path fill="#244db6" d="M 0.300781 73.550781 L 404.738281 73.550781 L 404.738281 74.113281 L 0.300781 74.113281 Z M 0.300781 73.550781 " fill-opacity="1" fill-rule="nonzero"/><path fill="#244db6" d="M 0.300781 36.785156 L 404.738281 36.785156 L 404.738281 37.347656 L 0.300781 37.347656 Z M 0.300781 36.785156 " fill-opacity="1" fill-rule="nonzero"/><path fill="#244db6" d="M 367.691406 0.300781 L 368.253906 0.300781 L 368.253906 404.738281 L 367.691406 404.738281 Z M 367.691406 0.300781 " fill-opacity="1" fill-rule="nonzero"/><path fill="#244db6" d="M 330.925781 0.300781 L 331.484375 0.300781 L 331.484375 404.738281 L 330.925781 404.738281 Z M 330.925781 0.300781 " fill-opacity="1" fill-rule="nonzero"/><path fill="#244db6" d="M 294.152344 0.300781 L 294.714844 0.300781 L 294.714844 404.738281 L 294.152344 404.738281 Z M 294.152344 0.300781 " fill-opacity="1" fill-rule="nonzero"/><path fill="#244db6" d="M 257.386719 0.300781 L 257.949219 0.300781 L 257.949219 404.738281 L 257.386719 404.738281 Z M 257.386719 0.300781 " fill-opacity="1" fill-rule="nonzero"/><path fill="#244db6" d="M 220.621094 0.300781 L 221.183594 0.300781 L 221.183594 404.738281 L 220.621094 404.738281 Z M 220.621094 0.300781 " fill-opacity="1" fill-rule="nonzero"/><path fill="#244db6" d="M 183.855469 0.300781 L 184.417969 0.300781 L 184.417969 404.738281 L 183.855469 404.738281 Z M 183.855469 0.300781 " fill-opacity="1" fill-rule="nonzero"/><path fill="#244db6" d="M 147.089844 0.300781 L 147.648438 0.300781 L 147.648438 404.738281 L 147.089844 404.738281 Z M 147.089844 0.300781 " fill-opacity="1" fill-rule="nonzero"/><path fill="#244db6" d="M 110.320312 0.300781 L 110.882812 0.300781 L 110.882812 404.738281 L 110.320312 404.738281 Z M 110.320312 0.300781 " fill-opacity="1" fill-rule="nonzero"/><path fill="#244db6" d="M 73.550781 0.300781 L 74.113281 0.300781 L 74.113281 404.738281 L 73.550781 404.738281 Z M 73.550781 0.300781 " fill-opacity="1" fill-rule="nonzero"/><path fill="#244db6" d="M 36.785156 0.300781 L 37.347656 0.300781 L 37.347656 404.738281 L 36.785156 404.738281 Z M 36.785156 0.300781 " fill-opacity="1" fill-rule="nonzero"/><g clip-path="url(#12124292c1)"><path fill="#244db6" d="M 405.019531 809.269531 L 0.0195312 809.269531 L 0.0195312 404.269531 L 405.019531 404.269531 Z M 0.582031 808.707031 L 404.457031 808.707031 L 404.457031 404.832031 L 0.582031 404.832031 Z M 0.582031 808.707031 " fill-opacity="1" fill-rule="nonzero"/></g><path fill="#244db6" d="M 0.300781 771.941406 L 404.738281 771.941406 L 404.738281 772.503906 L 0.300781 772.503906 Z M 0.300781 771.941406 " fill-opacity="1" fill-rule="nonzero"/><path fill="#244db6" d="M 0.300781 735.175781 L 404.738281 735.175781 L 404.738281 735.734375 L 0.300781 735.734375 Z M 0.300781 735.175781 " fill-opacity="1" fill-rule="nonzero"/><path fill="#244db6" d="M 0.300781 698.402344 L 404.738281 698.402344 L 404.738281 698.964844 L 0.300781 698.964844 Z M 0.300781 698.402344 " fill-opacity="1" fill-rule="nonzero"/><path fill="#244db6" d="M 0.300781 661.636719 L 404.738281 661.636719 L 404.738281 662.199219 L 0.300781 662.199219 Z M 0.300781 661.636719 " fill-opacity="1" fill-rule="nonzero"/><path fill="#244db6" d="M 0.300781 624.871094 L 404.738281 624.871094 L 404.738281 625.433594 L 0.300781 625.433594 Z M 0.300781 624.871094 " fill-opacity="1" fill-rule="nonzero"/><path fill="#244db6" d="M 0.300781 588.105469 L 404.738281 588.105469 L 404.738281 588.667969 L 0.300781 588.667969 Z M 0.300781 588.105469 " fill-opacity="1" fill-rule="nonzero"/><path fill="#244db6" d="M 0.300781 551.339844 L 404.738281 551.339844 L 404.738281 551.898438 L 0.300781 551.898438 Z M 0.300781 551.339844 " fill-opacity="1" fill-rule="nonzero"/><path fill="#244db6" d="M 0.300781 514.570312 L 404.738281 514.570312 L 404.738281 515.132812 L 0.300781 515.132812 Z M 0.300781 514.570312 " fill-opacity="1" fill-rule="nonzero"/><path fill="#244db6" d="M 0.300781 477.800781 L 404.738281 477.800781 L 404.738281 478.363281 L 0.300781 478.363281 Z M 0.300781 477.800781 " fill-opacity="1" fill-rule="nonzero"/><path fill="#244db6" d="M 0.300781 441.035156 L 404.738281 441.035156 L 404.738281 441.597656 L 0.300781 441.597656 Z M 0.300781 441.035156 " fill-opacity="1" fill-rule="nonzero"/><g clip-path="url(#9d601faae1)"><path fill="#244db6" d="M 367.691406 404.550781 L 368.253906 404.550781 L 368.253906 808.988281 L 367.691406 808.988281 Z M 367.691406 404.550781 " fill-opacity="1" fill-rule="nonzero"/></g><g clip-path="url(#73a4c1335c)"><path fill="#244db6" d="M 330.925781 404.550781 L 331.484375 404.550781 L 331.484375 808.988281 L 330.925781 808.988281 Z M 330.925781 404.550781 " fill-opacity="1" fill-rule="nonzero"/></g><g clip-path="url(#0b68c23ce6)"><path fill="#244db6" d="M 294.152344 404.550781 L 294.714844 404.550781 L 294.714844 808.988281 L 294.152344 808.988281 Z M 294.152344 404.550781 " fill-opacity="1" fill-rule="nonzero"/></g><g clip-path="url(#0248c4591f)"><path fill="#244db6" d="M 257.386719 404.550781 L 257.949219 404.550781 L 257.949219 808.988281 L 257.386719 808.988281 Z M 257.386719 404.550781 " fill-opacity="1" fill-rule="nonzero"/></g><g clip-path="url(#a4806ba593)"><path fill="#244db6" d="M 220.621094 404.550781 L 221.183594 404.550781 L 221.183594 808.988281 L 220.621094 808.988281 Z M 220.621094 404.550781 " fill-opacity="1" fill-rule="nonzero"/></g><g clip-path="url(#f4111ee9f8)"><path fill="#244db6" d="M 183.855469 404.550781 L 184.417969 404.550781 L 184.417969 808.988281 L 183.855469 808.988281 Z M 183.855469 404.550781 " fill-opacity="1" fill-rule="nonzero"/></g><g clip-path="url(#19465a76af)"><path fill="#244db6" d="M 147.089844 404.550781 L 147.648438 404.550781 L 147.648438 808.988281 L 147.089844 808.988281 Z M 147.089844 404.550781 " fill-opacity="1" fill-rule="nonzero"/></g><g clip-path="url(#61fb1a19a7)"><path fill="#244db6" d="M 110.320312 404.550781 L 110.882812 404.550781 L 110.882812 808.988281 L 110.320312 808.988281 Z M 110.320312 404.550781 " fill-opacity="1" fill-rule="nonzero"/></g><g clip-path="url(#b39297620c)"><path fill="#244db6" d="M 73.550781 404.550781 L 74.113281 404.550781 L 74.113281 808.988281 L 73.550781 808.988281 Z M 73.550781 404.550781 " fill-opacity="1" fill-rule="nonzero"/></g><g clip-path="url(#9698612f7f)"><path fill="#244db6" d="M 36.785156 404.550781 L 37.347656 404.550781 L 37.347656 808.988281 L 36.785156 808.988281 Z M 36.785156 404.550781 " fill-opacity="1" fill-rule="nonzero"/></g><g clip-path="url(#25209ee897)"><path fill="#244db6" d="M 809.269531 809.269531 L 404.269531 809.269531 L 404.269531 404.269531 L 809.269531 404.269531 Z M 404.832031 808.707031 L 808.707031 808.707031 L 808.707031 404.832031 L 404.832031 404.832031 Z M 404.832031 808.707031 " fill-opacity="1" fill-rule="nonzero"/></g><g clip-path="url(#e9bd6006d7)"><path fill="#244db6" d="M 404.550781 771.941406 L 808.988281 771.941406 L 808.988281 772.503906 L 404.550781 772.503906 Z M 404.550781 771.941406 " fill-opacity="1" fill-rule="nonzero"/></g><g clip-path="url(#cef2cbdbca)"><path fill="#244db6" d="M 404.550781 735.175781 L 808.988281 735.175781 L 808.988281 735.734375 L 404.550781 735.734375 Z M 404.550781 735.175781 " fill-opacity="1" fill-rule="nonzero"/></g><g clip-path="url(#51cb3dcea9)"><path fill="#244db6" d="M 404.550781 698.402344 L 808.988281 698.402344 L 808.988281 698.964844 L 404.550781 698.964844 Z M 404.550781 698.402344 " fill-opacity="1" fill-rule="nonzero"/></g><g clip-path="url(#1a90f19ad1)"><path fill="#244db6" d="M 404.550781 661.636719 L 808.988281 661.636719 L 808.988281 662.199219 L 404.550781 662.199219 Z M 404.550781 661.636719 " fill-opacity="1" fill-rule="nonzero"/></g><g clip-path="url(#a81ee20567)"><path fill="#244db6" d="M 404.550781 624.871094 L 808.988281 624.871094 L 808.988281 625.433594 L 404.550781 625.433594 Z M 404.550781 624.871094 " fill-opacity="1" fill-rule="nonzero"/></g><g clip-path="url(#850b256d84)"><path fill="#244db6" d="M 404.550781 588.105469 L 808.988281 588.105469 L 808.988281 588.667969 L 404.550781 588.667969 Z M 404.550781 588.105469 " fill-opacity="1" fill-rule="nonzero"/></g><g clip-path="url(#a19feb476d)"><path fill="#244db6" d="M 404.550781 551.339844 L 808.988281 551.339844 L 808.988281 551.898438 L 404.550781 551.898438 Z M 404.550781 551.339844 " fill-opacity="1" fill-rule="nonzero"/></g><g clip-path="url(#a0b139a479)"><path fill="#244db6" d="M 404.550781 514.570312 L 808.988281 514.570312 L 808.988281 515.132812 L 404.550781 515.132812 Z M 404.550781 514.570312 " fill-opacity="1" fill-rule="nonzero"/></g><g clip-path="url(#f4332b74be)"><path fill="#244db6" d="M 404.550781 477.800781 L 808.988281 477.800781 L 808.988281 478.363281 L 404.550781 478.363281 Z M 404.550781 477.800781 " fill-opacity="1" fill-rule="nonzero"/></g><g clip-path="url(#45dbf5e2ea)"><path fill="#244db6" d="M 404.550781 441.035156 L 808.988281 441.035156 L 808.988281 441.597656 L 404.550781 441.597656 Z M 404.550781 441.035156 " fill-opacity="1" fill-rule="nonzero"/></g><g clip-path="url(#cf729402de)"><path fill="#244db6" d="M 771.941406 404.550781 L 772.503906 404.550781 L 772.503906 808.988281 L 771.941406 808.988281 Z M 771.941406 404.550781 " fill-opacity="1" fill-rule="nonzero"/></g><g clip-path="url(#6349419db2)"><path fill="#244db6" d="M 735.175781 404.550781 L 735.734375 404.550781 L 735.734375 808.988281 L 735.175781 808.988281 Z M 735.175781 404.550781 " fill-opacity="1" fill-rule="nonzero"/></g><g clip-path="url(#5d2d701fd6)"><path fill="#244db6" d="M 698.402344 404.550781 L 698.964844 404.550781 L 698.964844 808.988281 L 698.402344 808.988281 Z M 698.402344 404.550781 " fill-opacity="1" fill-rule="nonzero"/></g><g clip-path="url(#7525b5e3bd)"><path fill="#244db6" d="M 661.636719 404.550781 L 662.199219 404.550781 L 662.199219 808.988281 L 661.636719 808.988281 Z M 661.636719 404.550781 " fill-opacity="1" fill-rule="nonzero"/></g><g clip-path="url(#f35f566832)"><path fill="#244db6" d="M 624.871094 404.550781 L 625.433594 404.550781 L 625.433594 808.988281 L 624.871094 808.988281 Z M 624.871094 404.550781 " fill-opacity="1" fill-rule="nonzero"/></g><g clip-path="url(#f948eaa748)"><path fill="#244db6" d="M 588.105469 404.550781 L 588.667969 404.550781 L 588.667969 808.988281 L 588.105469 808.988281 Z M 588.105469 404.550781 " fill-opacity="1" fill-rule="nonzero"/></g><g clip-path="url(#fc7ca63d62)"><path fill="#244db6" d="M 551.339844 404.550781 L 551.898438 404.550781 L 551.898438 808.988281 L 551.339844 808.988281 Z M 551.339844 404.550781 " fill-opacity="1" fill-rule="nonzero"/></g><g clip-path="url(#182cb6d383)"><path fill="#244db6" d="M 514.570312 404.550781 L 515.132812 404.550781 L 515.132812 808.988281 L 514.570312 808.988281 Z M 514.570312 404.550781 " fill-opacity="1" fill-rule="nonzero"/></g><g clip-path="url(#7e779f96fe)"><path fill="#244db6" d="M 477.800781 404.550781 L 478.363281 404.550781 L 478.363281 808.988281 L 477.800781 808.988281 Z M 477.800781 404.550781 " fill-opacity="1" fill-rule="nonzero"/></g><g clip-path="url(#b66bcfbbed)"><path fill="#244db6" d="M 441.035156 404.550781 L 441.597656 404.550781 L 441.597656 808.988281 L 441.035156 808.988281 Z M 441.035156 404.550781 " fill-opacity="1" fill-rule="nonzero"/></g><g clip-path="url(#5c12829bdb)"><path fill="#244db6" d="M 809.269531 405.019531 L 404.269531 405.019531 L 404.269531 0.0195312 L 809.269531 0.0195312 Z M 404.832031 404.457031 L 808.707031 404.457031 L 808.707031 0.582031 L 404.832031 0.582031 Z M 404.832031 404.457031 " fill-opacity="1" fill-rule="nonzero"/></g><g clip-path="url(#3ceee29c33)"><path fill="#244db6" d="M 404.550781 367.691406 L 808.988281 367.691406 L 808.988281 368.253906 L 404.550781 368.253906 Z M 404.550781 367.691406 " fill-opacity="1" fill-rule="nonzero"/></g><g clip-path="url(#5ea62e4c95)"><path fill="#244db6" d="M 404.550781 330.925781 L 808.988281 330.925781 L 808.988281 331.484375 L 404.550781 331.484375 Z M 404.550781 330.925781 " fill-opacity="1" fill-rule="nonzero"/></g><g clip-path="url(#89b1b16f03)"><path fill="#244db6" d="M 404.550781 294.152344 L 808.988281 294.152344 L 808.988281 294.714844 L 404.550781 294.714844 Z M 404.550781 294.152344 " fill-opacity="1" fill-rule="nonzero"/></g><g clip-path="url(#fac2afd0dd)"><path fill="#244db6" d="M 404.550781 257.386719 L 808.988281 257.386719 L 808.988281 257.949219 L 404.550781 257.949219 Z M 404.550781 257.386719 " fill-opacity="1" fill-rule="nonzero"/></g><g clip-path="url(#cf527b0800)"><path fill="#244db6" d="M 404.550781 220.621094 L 808.988281 220.621094 L 808.988281 221.183594 L 404.550781 221.183594 Z M 404.550781 220.621094 " fill-opacity="1" fill-rule="nonzero"/></g><g clip-path="url(#6e24ca1a10)"><path fill="#244db6" d="M 404.550781 183.855469 L 808.988281 183.855469 L 808.988281 184.417969 L 404.550781 184.417969 Z M 404.550781 183.855469 " fill-opacity="1" fill-rule="nonzero"/></g><g clip-path="url(#08226e66c0)"><path fill="#244db6" d="M 404.550781 147.089844 L 808.988281 147.089844 L 808.988281 147.648438 L 404.550781 147.648438 Z M 404.550781 147.089844 " fill-opacity="1" fill-rule="nonzero"/></g><g clip-path="url(#c556af0191)"><path fill="#244db6" d="M 404.550781 110.320312 L 808.988281 110.320312 L 808.988281 110.882812 L 404.550781 110.882812 Z M 404.550781 110.320312 " fill-opacity="1" fill-rule="nonzero"/></g><g clip-path="url(#c3f832b48f)"><path fill="#244db6" d="M 404.550781 73.550781 L 808.988281 73.550781 L 808.988281 74.113281 L 404.550781 74.113281 Z M 404.550781 73.550781 " fill-opacity="1" fill-rule="nonzero"/></g><g clip-path="url(#3914afe742)"><path fill="#244db6" d="M 404.550781 36.785156 L 808.988281 36.785156 L 808.988281 37.347656 L 404.550781 37.347656 Z M 404.550781 36.785156 " fill-opacity="1" fill-rule="nonzero"/></g><path fill="#244db6" d="M 771.941406 0.300781 L 772.503906 0.300781 L 772.503906 404.738281 L 771.941406 404.738281 Z M 771.941406 0.300781 " fill-opacity="1" fill-rule="nonzero"/><path fill="#244db6" d="M 735.175781 0.300781 L 735.734375 0.300781 L 735.734375 404.738281 L 735.175781 404.738281 Z M 735.175781 0.300781 " fill-opacity="1" fill-rule="nonzero"/><path fill="#244db6" d="M 698.402344 0.300781 L 698.964844 0.300781 L 698.964844 404.738281 L 698.402344 404.738281 Z M 698.402344 0.300781 " fill-opacity="1" fill-rule="nonzero"/><path fill="#244db6" d="M 661.636719 0.300781 L 662.199219 0.300781 L 662.199219 404.738281 L 661.636719 404.738281 Z M 661.636719 0.300781 " fill-opacity="1" fill-rule="nonzero"/><path fill="#244db6" d="M 624.871094 0.300781 L 625.433594 0.300781 L 625.433594 404.738281 L 624.871094 404.738281 Z M 624.871094 0.300781 " fill-opacity="1" fill-rule="nonzero"/><path fill="#244db6" d="M 588.105469 0.300781 L 588.667969 0.300781 L 588.667969 404.738281 L 588.105469 404.738281 Z M 588.105469 0.300781 " fill-opacity="1" fill-rule="nonzero"/><path fill="#244db6" d="M 551.339844 0.300781 L 551.898438 0.300781 L 551.898438 404.738281 L 551.339844 404.738281 Z M 551.339844 0.300781 " fill-opacity="1" fill-rule="nonzero"/><path fill="#244db6" d="M 514.570312 0.300781 L 515.132812 0.300781 L 515.132812 404.738281 L 514.570312 404.738281 Z M 514.570312 0.300781 " fill-opacity="1" fill-rule="nonzero"/><path fill="#244db6" d="M 477.800781 0.300781 L 478.363281 0.300781 L 478.363281 404.738281 L 477.800781 404.738281 Z M 477.800781 0.300781 " fill-opacity="1" fill-rule="nonzero"/><path fill="#244db6" d="M 441.035156 0.300781 L 441.597656 0.300781 L 441.597656 404.738281 L 441.035156 404.738281 Z M 441.035156 0.300781 " fill-opacity="1" fill-rule="nonzero"/></svg>