<svg xmlns="http://www.w3.org/2000/svg" xmlns:xlink="http://www.w3.org/1999/xlink" width="3024" zoomAndPan="magnify" viewBox="0 0 2268 629.24998" height="839" preserveAspectRatio="xMidYMid meet" version="1.0"><defs><g/></defs><g fill="#ffffff" fill-opacity="1"><g transform="translate(1.350035, 243.882376)"><g><path d="M 124.40625 -119.78125 C 122.175781 -123.375 119.003906 -126.15625 114.890625 -128.125 C 110.773438 -130.09375 105.804688 -131.078125 99.984375 -131.078125 C 89.015625 -131.078125 80.53125 -127.519531 74.53125 -120.40625 C 68.539062 -113.300781 65.546875 -103.582031 65.546875 -91.25 C 65.546875 -77.019531 68.882812 -66.390625 75.5625 -59.359375 C 82.25 -52.335938 92.53125 -48.828125 106.40625 -48.828125 C 119.601562 -48.828125 130.226562 -54.140625 138.28125 -64.765625 L 92.78125 -64.765625 L 92.78125 -105.125 L 185.578125 -105.125 L 185.578125 -48.0625 C 177.691406 -34.53125 166.804688 -22.921875 152.921875 -13.234375 C 139.046875 -3.554688 121.484375 1.28125 100.234375 1.28125 C 81.390625 1.28125 64.984375 -2.613281 51.015625 -10.40625 C 37.054688 -18.207031 26.347656 -29.128906 18.890625 -43.171875 C 11.429688 -57.222656 7.703125 -73.25 7.703125 -91.25 C 7.703125 -109.238281 11.429688 -125.257812 18.890625 -139.3125 C 26.347656 -153.363281 37.015625 -164.285156 50.890625 -172.078125 C 64.773438 -179.878906 81.054688 -183.78125 99.734375 -183.78125 C 123.546875 -183.78125 142.945312 -178.035156 157.9375 -166.546875 C 172.9375 -155.066406 181.804688 -139.476562 184.546875 -119.78125 Z M 124.40625 -119.78125 "/></g></g></g><g fill="#ffffff" fill-opacity="1"><g transform="translate(181.784799, 243.882376)"><g><path d="M 81.734375 1.796875 C 67.171875 1.796875 54.0625 -1.195312 42.40625 -7.1875 C 30.757812 -13.1875 21.632812 -21.796875 15.03125 -33.015625 C 8.4375 -44.242188 5.140625 -57.398438 5.140625 -72.484375 C 5.140625 -87.554688 8.4375 -100.703125 15.03125 -111.921875 C 21.632812 -123.148438 30.757812 -131.765625 42.40625 -137.765625 C 54.0625 -143.765625 67.171875 -146.765625 81.734375 -146.765625 C 96.296875 -146.765625 109.40625 -143.765625 121.0625 -137.765625 C 132.71875 -131.765625 141.84375 -123.148438 148.4375 -111.921875 C 155.03125 -100.703125 158.328125 -87.554688 158.328125 -72.484375 C 158.328125 -57.398438 155.03125 -44.242188 148.4375 -33.015625 C 141.84375 -21.796875 132.71875 -13.1875 121.0625 -7.1875 C 109.40625 -1.195312 96.296875 1.796875 81.734375 1.796875 Z M 81.734375 -47.546875 C 87.046875 -47.546875 91.5 -49.644531 95.09375 -53.84375 C 98.695312 -58.039062 100.5 -64.253906 100.5 -72.484375 C 100.5 -80.703125 98.695312 -86.910156 95.09375 -91.109375 C 91.5 -95.316406 87.046875 -97.421875 81.734375 -97.421875 C 76.421875 -97.421875 71.960938 -95.316406 68.359375 -91.109375 C 64.765625 -86.910156 62.96875 -80.703125 62.96875 -72.484375 C 62.96875 -64.253906 64.722656 -58.039062 68.234375 -53.84375 C 71.753906 -49.644531 76.253906 -47.546875 81.734375 -47.546875 Z M 81.734375 -47.546875 "/></g></g></g><g fill="#ffffff" fill-opacity="1"><g transform="translate(332.404051, 243.882376)"><g><path d="M 81.734375 1.796875 C 67.171875 1.796875 54.0625 -1.195312 42.40625 -7.1875 C 30.757812 -13.1875 21.632812 -21.796875 15.03125 -33.015625 C 8.4375 -44.242188 5.140625 -57.398438 5.140625 -72.484375 C 5.140625 -87.554688 8.4375 -100.703125 15.03125 -111.921875 C 21.632812 -123.148438 30.757812 -131.765625 42.40625 -137.765625 C 54.0625 -143.765625 67.171875 -146.765625 81.734375 -146.765625 C 96.296875 -146.765625 109.40625 -143.765625 121.0625 -137.765625 C 132.71875 -131.765625 141.84375 -123.148438 148.4375 -111.921875 C 155.03125 -100.703125 158.328125 -87.554688 158.328125 -72.484375 C 158.328125 -57.398438 155.03125 -44.242188 148.4375 -33.015625 C 141.84375 -21.796875 132.71875 -13.1875 121.0625 -7.1875 C 109.40625 -1.195312 96.296875 1.796875 81.734375 1.796875 Z M 81.734375 -47.546875 C 87.046875 -47.546875 91.5 -49.644531 95.09375 -53.84375 C 98.695312 -58.039062 100.5 -64.253906 100.5 -72.484375 C 100.5 -80.703125 98.695312 -86.910156 95.09375 -91.109375 C 91.5 -95.316406 87.046875 -97.421875 81.734375 -97.421875 C 76.421875 -97.421875 71.960938 -95.316406 68.359375 -91.109375 C 64.765625 -86.910156 62.96875 -80.703125 62.96875 -72.484375 C 62.96875 -64.253906 64.722656 -58.039062 68.234375 -53.84375 C 71.753906 -49.644531 76.253906 -47.546875 81.734375 -47.546875 Z M 81.734375 -47.546875 "/></g></g></g><g fill="#ffffff" fill-opacity="1"><g transform="translate(483.023304, 243.882376)"><g><path d="M 65.03125 -146.765625 C 74.457031 -146.765625 82.597656 -144.835938 89.453125 -140.984375 C 96.304688 -137.128906 101.53125 -131.859375 105.125 -125.171875 L 105.125 -144.96875 L 161.921875 -144.96875 L 161.921875 -2.5625 C 161.921875 10.96875 159.4375 23.300781 154.46875 34.4375 C 149.5 45.582031 141.488281 54.492188 130.4375 61.171875 C 119.382812 67.859375 105.207031 71.203125 87.90625 71.203125 C 64.601562 71.203125 46.140625 65.757812 32.515625 54.875 C 18.890625 43.988281 11.132812 29.207031 9.25 10.53125 L 65.28125 10.53125 C 66.820312 18.070312 72.992188 21.84375 83.796875 21.84375 C 90.472656 21.84375 95.695312 20.128906 99.46875 16.703125 C 103.238281 13.273438 105.125 6.851562 105.125 -2.5625 L 105.125 -19.796875 C 101.53125 -13.109375 96.304688 -7.835938 89.453125 -3.984375 C 82.597656 -0.128906 74.457031 1.796875 65.03125 1.796875 C 53.71875 1.796875 43.519531 -1.15625 34.4375 -7.0625 C 25.351562 -12.976562 18.195312 -21.546875 12.96875 -32.765625 C 7.75 -43.992188 5.140625 -57.234375 5.140625 -72.484375 C 5.140625 -87.734375 7.75 -100.96875 12.96875 -112.1875 C 18.195312 -123.414062 25.351562 -131.984375 34.4375 -137.890625 C 43.519531 -143.804688 53.71875 -146.765625 65.03125 -146.765625 Z M 105.125 -72.484375 C 105.125 -80.191406 103.148438 -86.1875 99.203125 -90.46875 C 95.265625 -94.757812 90.210938 -96.90625 84.046875 -96.90625 C 77.878906 -96.90625 72.820312 -94.757812 68.875 -90.46875 C 64.9375 -86.1875 62.96875 -80.191406 62.96875 -72.484375 C 62.96875 -64.773438 64.9375 -58.773438 68.875 -54.484375 C 72.820312 -50.203125 77.878906 -48.0625 84.046875 -48.0625 C 90.210938 -48.0625 95.265625 -50.203125 99.203125 -54.484375 C 103.148438 -58.773438 105.125 -64.773438 105.125 -72.484375 Z M 105.125 -72.484375 "/></g></g></g><g fill="#ffffff" fill-opacity="1"><g transform="translate(644.951863, 243.882376)"><g><path d="M 69.90625 -190.203125 L 69.90625 0 L 12.84375 0 L 12.84375 -190.203125 Z M 69.90625 -190.203125 "/></g></g></g><g fill="#ffffff" fill-opacity="1"><g transform="translate(714.863523, 243.882376)"><g><path d="M 153.1875 -73.765625 C 153.1875 -69.828125 152.929688 -66.054688 152.421875 -62.453125 L 60.65625 -62.453125 C 61.507812 -49.941406 66.738281 -43.6875 76.34375 -43.6875 C 82.507812 -43.6875 86.960938 -46.515625 89.703125 -52.171875 L 150.109375 -52.171875 C 148.046875 -41.890625 143.71875 -32.679688 137.125 -24.546875 C 130.53125 -16.410156 122.21875 -9.984375 112.1875 -5.265625 C 102.164062 -0.554688 91.160156 1.796875 79.171875 1.796875 C 64.773438 1.796875 51.960938 -1.195312 40.734375 -7.1875 C 29.515625 -13.1875 20.773438 -21.796875 14.515625 -33.015625 C 8.265625 -44.242188 5.140625 -57.398438 5.140625 -72.484375 C 5.140625 -87.554688 8.265625 -100.703125 14.515625 -111.921875 C 20.773438 -123.148438 29.515625 -131.765625 40.734375 -137.765625 C 51.960938 -143.765625 64.773438 -146.765625 79.171875 -146.765625 C 93.554688 -146.765625 106.359375 -143.804688 117.578125 -137.890625 C 128.804688 -131.984375 137.546875 -123.546875 143.796875 -112.578125 C 150.054688 -101.609375 153.1875 -88.671875 153.1875 -73.765625 Z M 95.359375 -87.390625 C 95.359375 -92.191406 93.816406 -95.832031 90.734375 -98.3125 C 87.648438 -100.800781 83.796875 -102.046875 79.171875 -102.046875 C 69.054688 -102.046875 63.144531 -97.160156 61.4375 -87.390625 Z M 95.359375 -87.390625 "/></g></g></g><g fill="#ffffff" fill-opacity="1"><g transform="translate(860.342183, 243.882376)"><g/></g></g><g fill="#ffffff" fill-opacity="1"><g transform="translate(891.185195, 243.882376)"><g><path d="M 155.765625 -181.984375 L 155.765625 -136.734375 L 107.4375 -136.734375 L 107.4375 0 L 50.375 0 L 50.375 -136.734375 L 2.5625 -136.734375 L 2.5625 -181.984375 Z M 155.765625 -181.984375 "/></g></g></g><g fill="#ffffff" fill-opacity="1"><g transform="translate(1036.663786, 243.882376)"><g><path d="M 69.90625 -118.234375 C 75.738281 -126.628906 82.851562 -133.351562 91.25 -138.40625 C 99.644531 -143.46875 108.382812 -146 117.46875 -146 L 117.46875 -85.078125 L 101.265625 -85.078125 C 90.472656 -85.078125 82.546875 -83.191406 77.484375 -79.421875 C 72.429688 -75.648438 69.90625 -68.96875 69.90625 -59.375 L 69.90625 0 L 12.84375 0 L 12.84375 -144.96875 L 69.90625 -144.96875 Z M 69.90625 -118.234375 "/></g></g></g><g fill="#ffffff" fill-opacity="1"><g transform="translate(1143.844852, 243.882376)"><g><path d="M 153.1875 -73.765625 C 153.1875 -69.828125 152.929688 -66.054688 152.421875 -62.453125 L 60.65625 -62.453125 C 61.507812 -49.941406 66.738281 -43.6875 76.34375 -43.6875 C 82.507812 -43.6875 86.960938 -46.515625 89.703125 -52.171875 L 150.109375 -52.171875 C 148.046875 -41.890625 143.71875 -32.679688 137.125 -24.546875 C 130.53125 -16.410156 122.21875 -9.984375 112.1875 -5.265625 C 102.164062 -0.554688 91.160156 1.796875 79.171875 1.796875 C 64.773438 1.796875 51.960938 -1.195312 40.734375 -7.1875 C 29.515625 -13.1875 20.773438 -21.796875 14.515625 -33.015625 C 8.265625 -44.242188 5.140625 -57.398438 5.140625 -72.484375 C 5.140625 -87.554688 8.265625 -100.703125 14.515625 -111.921875 C 20.773438 -123.148438 29.515625 -131.765625 40.734375 -137.765625 C 51.960938 -143.765625 64.773438 -146.765625 79.171875 -146.765625 C 93.554688 -146.765625 106.359375 -143.804688 117.578125 -137.890625 C 128.804688 -131.984375 137.546875 -123.546875 143.796875 -112.578125 C 150.054688 -101.609375 153.1875 -88.671875 153.1875 -73.765625 Z M 95.359375 -87.390625 C 95.359375 -92.191406 93.816406 -95.832031 90.734375 -98.3125 C 87.648438 -100.800781 83.796875 -102.046875 79.171875 -102.046875 C 69.054688 -102.046875 63.144531 -97.160156 61.4375 -87.390625 Z M 95.359375 -87.390625 "/></g></g></g><g fill="#ffffff" fill-opacity="1"><g transform="translate(1289.323444, 243.882376)"><g><path d="M 114.375 -146 C 131 -146 143.976562 -140.425781 153.3125 -129.28125 C 162.65625 -118.144531 167.328125 -103.066406 167.328125 -84.046875 L 167.328125 0 L 110.515625 0 L 110.515625 -76.859375 C 110.515625 -83.710938 108.671875 -89.148438 104.984375 -93.171875 C 101.304688 -97.203125 96.382812 -99.21875 90.21875 -99.21875 C 83.875 -99.21875 78.898438 -97.203125 75.296875 -93.171875 C 71.703125 -89.148438 69.90625 -83.710938 69.90625 -76.859375 L 69.90625 0 L 12.84375 0 L 12.84375 -144.96875 L 69.90625 -144.96875 L 69.90625 -122.859375 C 74.363281 -129.710938 80.316406 -135.28125 87.765625 -139.5625 C 95.222656 -143.851562 104.09375 -146 114.375 -146 Z M 114.375 -146 "/></g></g></g><g fill="#ffffff" fill-opacity="1"><g transform="translate(1455.621541, 243.882376)"><g><path d="M 5.140625 -72.484375 C 5.140625 -87.734375 7.75 -100.96875 12.96875 -112.1875 C 18.195312 -123.414062 25.351562 -131.984375 34.4375 -137.890625 C 43.519531 -143.804688 53.71875 -146.765625 65.03125 -146.765625 C 74.457031 -146.765625 82.550781 -144.835938 89.3125 -140.984375 C 96.082031 -137.128906 101.269531 -131.859375 104.875 -125.171875 L 104.875 -190.203125 L 161.921875 -190.203125 L 161.921875 0 L 104.875 0 L 104.875 -19.796875 C 101.269531 -13.109375 96.082031 -7.835938 89.3125 -3.984375 C 82.550781 -0.128906 74.457031 1.796875 65.03125 1.796875 C 53.71875 1.796875 43.519531 -1.15625 34.4375 -7.0625 C 25.351562 -12.976562 18.195312 -21.546875 12.96875 -32.765625 C 7.75 -43.992188 5.140625 -57.234375 5.140625 -72.484375 Z M 105.125 -72.484375 C 105.125 -80.191406 103.148438 -86.1875 99.203125 -90.46875 C 95.265625 -94.757812 90.210938 -96.90625 84.046875 -96.90625 C 77.878906 -96.90625 72.820312 -94.757812 68.875 -90.46875 C 64.9375 -86.1875 62.96875 -80.191406 62.96875 -72.484375 C 62.96875 -64.773438 64.9375 -58.773438 68.875 -54.484375 C 72.820312 -50.203125 77.878906 -48.0625 84.046875 -48.0625 C 90.210938 -48.0625 95.265625 -50.203125 99.203125 -54.484375 C 103.148438 -58.773438 105.125 -64.773438 105.125 -72.484375 Z M 105.125 -72.484375 "/></g></g></g><g fill="#ffffff" fill-opacity="1"><g transform="translate(1617.550169, 243.882376)"><g><path d="M 77.359375 1.796875 C 63.648438 1.796875 51.523438 -0.425781 40.984375 -4.875 C 30.453125 -9.332031 22.101562 -15.503906 15.9375 -23.390625 C 9.769531 -31.273438 6.253906 -40.1875 5.390625 -50.125 L 60.140625 -50.125 C 60.828125 -45.832031 62.671875 -42.660156 65.671875 -40.609375 C 68.671875 -38.554688 72.484375 -37.53125 77.109375 -37.53125 C 80.023438 -37.53125 82.335938 -38.171875 84.046875 -39.453125 C 85.765625 -40.734375 86.625 -42.316406 86.625 -44.203125 C 86.625 -47.460938 84.820312 -49.773438 81.21875 -51.140625 C 77.625 -52.515625 71.539062 -54.0625 62.96875 -55.78125 C 52.519531 -57.832031 43.910156 -60.054688 37.140625 -62.453125 C 30.367188 -64.859375 24.457031 -68.972656 19.40625 -74.796875 C 14.351562 -80.617188 11.828125 -88.671875 11.828125 -98.953125 C 11.828125 -107.867188 14.179688 -115.96875 18.890625 -123.25 C 23.597656 -130.53125 30.578125 -136.269531 39.828125 -140.46875 C 49.085938 -144.664062 60.316406 -146.765625 73.515625 -146.765625 C 93.046875 -146.765625 108.335938 -141.96875 119.390625 -132.375 C 130.441406 -122.78125 137.082031 -110.269531 139.3125 -94.84375 L 88.671875 -94.84375 C 87.816406 -98.78125 86.019531 -101.820312 83.28125 -103.96875 C 80.539062 -106.113281 76.851562 -107.1875 72.21875 -107.1875 C 69.3125 -107.1875 67.085938 -106.628906 65.546875 -105.515625 C 64.003906 -104.398438 63.234375 -102.726562 63.234375 -100.5 C 63.234375 -97.582031 65.03125 -95.394531 68.625 -93.9375 C 72.226562 -92.488281 77.96875 -90.992188 85.84375 -89.453125 C 96.300781 -87.390625 105.128906 -85.070312 112.328125 -82.5 C 119.523438 -79.9375 125.773438 -75.523438 131.078125 -69.265625 C 136.390625 -63.015625 139.046875 -54.40625 139.046875 -43.4375 C 139.046875 -34.875 136.5625 -27.164062 131.59375 -20.3125 C 126.625 -13.457031 119.46875 -8.054688 110.125 -4.109375 C 100.789062 -0.171875 89.867188 1.796875 77.359375 1.796875 Z M 77.359375 1.796875 "/></g></g></g><g fill="#ffffff" fill-opacity="1"><g transform="translate(1.350035, 500.297844)"><g><path d="M 84.046875 1.796875 C 62.285156 1.796875 44.335938 -3.296875 30.203125 -13.484375 C 16.066406 -23.679688 8.398438 -38.632812 7.203125 -58.34375 L 67.859375 -58.34375 C 68.710938 -47.894531 73.335938 -42.671875 81.734375 -42.671875 C 84.816406 -42.671875 87.425781 -43.394531 89.5625 -44.84375 C 91.707031 -46.300781 92.78125 -48.570312 92.78125 -51.65625 C 92.78125 -55.945312 90.46875 -59.421875 85.84375 -62.078125 C 81.21875 -64.734375 74.019531 -67.773438 64.25 -71.203125 C 52.601562 -75.304688 42.96875 -79.328125 35.34375 -83.265625 C 27.71875 -87.210938 21.160156 -92.957031 15.671875 -100.5 C 10.191406 -108.039062 7.535156 -117.722656 7.703125 -129.546875 C 7.703125 -141.367188 10.742188 -151.429688 16.828125 -159.734375 C 22.910156 -168.046875 31.222656 -174.34375 41.765625 -178.625 C 52.304688 -182.914062 64.171875 -185.0625 77.359375 -185.0625 C 99.640625 -185.0625 117.332031 -179.921875 130.4375 -169.640625 C 143.550781 -159.359375 150.453125 -144.878906 151.140625 -126.203125 L 89.703125 -126.203125 C 89.535156 -131.335938 88.25 -135.019531 85.84375 -137.25 C 83.445312 -139.476562 80.535156 -140.59375 77.109375 -140.59375 C 74.710938 -140.59375 72.742188 -139.78125 71.203125 -138.15625 C 69.660156 -136.53125 68.890625 -134.257812 68.890625 -131.34375 C 68.890625 -127.226562 71.15625 -123.84375 75.6875 -121.1875 C 80.226562 -118.53125 87.472656 -115.316406 97.421875 -111.546875 C 108.898438 -107.265625 118.363281 -103.148438 125.8125 -99.203125 C 133.269531 -95.265625 139.738281 -89.78125 145.21875 -82.75 C 150.707031 -75.726562 153.453125 -66.910156 153.453125 -56.296875 C 153.453125 -45.148438 150.707031 -35.164062 145.21875 -26.34375 C 139.738281 -17.519531 131.769531 -10.625 121.3125 -5.65625 C 110.863281 -0.6875 98.441406 1.796875 84.046875 1.796875 Z M 84.046875 1.796875 "/></g></g></g><g fill="#ffffff" fill-opacity="1"><g transform="translate(149.141927, 500.297844)"><g><path d="M 153.1875 -73.765625 C 153.1875 -69.828125 152.929688 -66.054688 152.421875 -62.453125 L 60.65625 -62.453125 C 61.507812 -49.941406 66.738281 -43.6875 76.34375 -43.6875 C 82.507812 -43.6875 86.960938 -46.515625 89.703125 -52.171875 L 150.109375 -52.171875 C 148.046875 -41.890625 143.71875 -32.679688 137.125 -24.546875 C 130.53125 -16.410156 122.21875 -9.984375 112.1875 -5.265625 C 102.164062 -0.554688 91.160156 1.796875 79.171875 1.796875 C 64.773438 1.796875 51.960938 -1.195312 40.734375 -7.1875 C 29.515625 -13.1875 20.773438 -21.796875 14.515625 -33.015625 C 8.265625 -44.242188 5.140625 -57.398438 5.140625 -72.484375 C 5.140625 -87.554688 8.265625 -100.703125 14.515625 -111.921875 C 20.773438 -123.148438 29.515625 -131.765625 40.734375 -137.765625 C 51.960938 -143.765625 64.773438 -146.765625 79.171875 -146.765625 C 93.554688 -146.765625 106.359375 -143.804688 117.578125 -137.890625 C 128.804688 -131.984375 137.546875 -123.546875 143.796875 -112.578125 C 150.054688 -101.609375 153.1875 -88.671875 153.1875 -73.765625 Z M 95.359375 -87.390625 C 95.359375 -92.191406 93.816406 -95.832031 90.734375 -98.3125 C 87.648438 -100.800781 83.796875 -102.046875 79.171875 -102.046875 C 69.054688 -102.046875 63.144531 -97.160156 61.4375 -87.390625 Z M 95.359375 -87.390625 "/></g></g></g><g fill="#ffffff" fill-opacity="1"><g transform="translate(294.620552, 500.297844)"><g><path d="M 5.140625 -72.484375 C 5.140625 -87.734375 7.75 -100.96875 12.96875 -112.1875 C 18.195312 -123.414062 25.351562 -131.984375 34.4375 -137.890625 C 43.519531 -143.804688 53.71875 -146.765625 65.03125 -146.765625 C 74.457031 -146.765625 82.597656 -144.835938 89.453125 -140.984375 C 96.304688 -137.128906 101.53125 -131.859375 105.125 -125.171875 L 105.125 -144.96875 L 161.921875 -144.96875 L 161.921875 0 L 105.125 0 L 105.125 -19.796875 C 101.53125 -13.109375 96.304688 -7.835938 89.453125 -3.984375 C 82.597656 -0.128906 74.457031 1.796875 65.03125 1.796875 C 53.71875 1.796875 43.519531 -1.15625 34.4375 -7.0625 C 25.351562 -12.976562 18.195312 -21.546875 12.96875 -32.765625 C 7.75 -43.992188 5.140625 -57.234375 5.140625 -72.484375 Z M 105.125 -72.484375 C 105.125 -80.191406 103.148438 -86.1875 99.203125 -90.46875 C 95.265625 -94.757812 90.210938 -96.90625 84.046875 -96.90625 C 77.878906 -96.90625 72.820312 -94.757812 68.875 -90.46875 C 64.9375 -86.1875 62.96875 -80.191406 62.96875 -72.484375 C 62.96875 -64.773438 64.9375 -58.773438 68.875 -54.484375 C 72.820312 -50.203125 77.878906 -48.0625 84.046875 -48.0625 C 90.210938 -48.0625 95.265625 -50.203125 99.203125 -54.484375 C 103.148438 -58.773438 105.125 -64.773438 105.125 -72.484375 Z M 105.125 -72.484375 "/></g></g></g><g fill="#ffffff" fill-opacity="1"><g transform="translate(456.549144, 500.297844)"><g><path d="M 69.90625 -118.234375 C 75.738281 -126.628906 82.851562 -133.351562 91.25 -138.40625 C 99.644531 -143.46875 108.382812 -146 117.46875 -146 L 117.46875 -85.078125 L 101.265625 -85.078125 C 90.472656 -85.078125 82.546875 -83.191406 77.484375 -79.421875 C 72.429688 -75.648438 69.90625 -68.96875 69.90625 -59.375 L 69.90625 0 L 12.84375 0 L 12.84375 -144.96875 L 69.90625 -144.96875 Z M 69.90625 -118.234375 "/></g></g></g><g fill="#ffffff" fill-opacity="1"><g transform="translate(563.730211, 500.297844)"><g><path d="M 5.140625 -72.484375 C 5.140625 -87.554688 8.265625 -100.703125 14.515625 -111.921875 C 20.773438 -123.148438 29.515625 -131.765625 40.734375 -137.765625 C 51.960938 -143.765625 64.773438 -146.765625 79.171875 -146.765625 C 98.015625 -146.765625 113.90625 -141.453125 126.84375 -130.828125 C 139.78125 -120.203125 147.960938 -105.46875 151.390625 -86.625 L 90.984375 -86.625 C 88.753906 -94.15625 84.382812 -97.921875 77.875 -97.921875 C 73.25 -97.921875 69.609375 -95.78125 66.953125 -91.5 C 64.296875 -87.21875 62.96875 -80.878906 62.96875 -72.484375 C 62.96875 -64.085938 64.296875 -57.742188 66.953125 -53.453125 C 69.609375 -49.171875 73.25 -47.03125 77.875 -47.03125 C 84.382812 -47.03125 88.753906 -50.800781 90.984375 -58.34375 L 151.390625 -58.34375 C 147.960938 -39.5 139.78125 -24.765625 126.84375 -14.140625 C 113.90625 -3.515625 98.015625 1.796875 79.171875 1.796875 C 64.773438 1.796875 51.960938 -1.195312 40.734375 -7.1875 C 29.515625 -13.1875 20.773438 -21.796875 14.515625 -33.015625 C 8.265625 -44.242188 5.140625 -57.398438 5.140625 -72.484375 Z M 5.140625 -72.484375 "/></g></g></g><g fill="#ffffff" fill-opacity="1"><g transform="translate(707.409628, 500.297844)"><g><path d="M 114.375 -146 C 131 -146 143.976562 -140.425781 153.3125 -129.28125 C 162.65625 -118.144531 167.328125 -103.066406 167.328125 -84.046875 L 167.328125 0 L 110.515625 0 L 110.515625 -76.859375 C 110.515625 -83.710938 108.671875 -89.148438 104.984375 -93.171875 C 101.304688 -97.203125 96.382812 -99.21875 90.21875 -99.21875 C 83.875 -99.21875 78.898438 -97.203125 75.296875 -93.171875 C 71.703125 -89.148438 69.90625 -83.710938 69.90625 -76.859375 L 69.90625 0 L 12.84375 0 L 12.84375 -190.203125 L 69.90625 -190.203125 L 69.90625 -122.859375 C 74.363281 -129.710938 80.316406 -135.28125 87.765625 -139.5625 C 95.222656 -143.851562 104.09375 -146 114.375 -146 Z M 114.375 -146 "/></g></g></g><g fill="#ffffff" fill-opacity="1"><g transform="translate(873.707725, 500.297844)"><g/></g></g><g fill="#ffffff" fill-opacity="1"><g transform="translate(904.550738, 500.297844)"><g><path d="M 187.375 0 L 130.3125 0 L 69.90625 -91.5 L 69.90625 0 L 12.84375 0 L 12.84375 -181.984375 L 69.90625 -181.984375 L 130.3125 -88.9375 L 130.3125 -181.984375 L 187.375 -181.984375 Z M 187.375 0 "/></g></g></g><g fill="#ffffff" fill-opacity="1"><g transform="translate(1091.925337, 500.297844)"><g><path d="M 5.140625 -72.484375 C 5.140625 -87.734375 7.75 -100.96875 12.96875 -112.1875 C 18.195312 -123.414062 25.351562 -131.984375 34.4375 -137.890625 C 43.519531 -143.804688 53.71875 -146.765625 65.03125 -146.765625 C 74.457031 -146.765625 82.597656 -144.835938 89.453125 -140.984375 C 96.304688 -137.128906 101.53125 -131.859375 105.125 -125.171875 L 105.125 -144.96875 L 161.921875 -144.96875 L 161.921875 0 L 105.125 0 L 105.125 -19.796875 C 101.53125 -13.109375 96.304688 -7.835938 89.453125 -3.984375 C 82.597656 -0.128906 74.457031 1.796875 65.03125 1.796875 C 53.71875 1.796875 43.519531 -1.15625 34.4375 -7.0625 C 25.351562 -12.976562 18.195312 -21.546875 12.96875 -32.765625 C 7.75 -43.992188 5.140625 -57.234375 5.140625 -72.484375 Z M 105.125 -72.484375 C 105.125 -80.191406 103.148438 -86.1875 99.203125 -90.46875 C 95.265625 -94.757812 90.210938 -96.90625 84.046875 -96.90625 C 77.878906 -96.90625 72.820312 -94.757812 68.875 -90.46875 C 64.9375 -86.1875 62.96875 -80.191406 62.96875 -72.484375 C 62.96875 -64.773438 64.9375 -58.773438 68.875 -54.484375 C 72.820312 -50.203125 77.878906 -48.0625 84.046875 -48.0625 C 90.210938 -48.0625 95.265625 -50.203125 99.203125 -54.484375 C 103.148438 -58.773438 105.125 -64.773438 105.125 -72.484375 Z M 105.125 -72.484375 "/></g></g></g><g fill="#ffffff" fill-opacity="1"><g transform="translate(1253.853964, 500.297844)"><g><path d="M 69.90625 -118.234375 C 75.738281 -126.628906 82.851562 -133.351562 91.25 -138.40625 C 99.644531 -143.46875 108.382812 -146 117.46875 -146 L 117.46875 -85.078125 L 101.265625 -85.078125 C 90.472656 -85.078125 82.546875 -83.191406 77.484375 -79.421875 C 72.429688 -75.648438 69.90625 -68.96875 69.90625 -59.375 L 69.90625 0 L 12.84375 0 L 12.84375 -144.96875 L 69.90625 -144.96875 Z M 69.90625 -118.234375 "/></g></g></g><g fill="#ffffff" fill-opacity="1"><g transform="translate(1361.03503, 500.297844)"><g><path d="M 69.90625 -118.234375 C 75.738281 -126.628906 82.851562 -133.351562 91.25 -138.40625 C 99.644531 -143.46875 108.382812 -146 117.46875 -146 L 117.46875 -85.078125 L 101.265625 -85.078125 C 90.472656 -85.078125 82.546875 -83.191406 77.484375 -79.421875 C 72.429688 -75.648438 69.90625 -68.96875 69.90625 -59.375 L 69.90625 0 L 12.84375 0 L 12.84375 -144.96875 L 69.90625 -144.96875 Z M 69.90625 -118.234375 "/></g></g></g><g fill="#ffffff" fill-opacity="1"><g transform="translate(1468.216097, 500.297844)"><g><path d="M 5.140625 -72.484375 C 5.140625 -87.734375 7.75 -100.96875 12.96875 -112.1875 C 18.195312 -123.414062 25.351562 -131.984375 34.4375 -137.890625 C 43.519531 -143.804688 53.71875 -146.765625 65.03125 -146.765625 C 74.457031 -146.765625 82.597656 -144.835938 89.453125 -140.984375 C 96.304688 -137.128906 101.53125 -131.859375 105.125 -125.171875 L 105.125 -144.96875 L 161.921875 -144.96875 L 161.921875 0 L 105.125 0 L 105.125 -19.796875 C 101.53125 -13.109375 96.304688 -7.835938 89.453125 -3.984375 C 82.597656 -0.128906 74.457031 1.796875 65.03125 1.796875 C 53.71875 1.796875 43.519531 -1.15625 34.4375 -7.0625 C 25.351562 -12.976562 18.195312 -21.546875 12.96875 -32.765625 C 7.75 -43.992188 5.140625 -57.234375 5.140625 -72.484375 Z M 105.125 -72.484375 C 105.125 -80.191406 103.148438 -86.1875 99.203125 -90.46875 C 95.265625 -94.757812 90.210938 -96.90625 84.046875 -96.90625 C 77.878906 -96.90625 72.820312 -94.757812 68.875 -90.46875 C 64.9375 -86.1875 62.96875 -80.191406 62.96875 -72.484375 C 62.96875 -64.773438 64.9375 -58.773438 68.875 -54.484375 C 72.820312 -50.203125 77.878906 -48.0625 84.046875 -48.0625 C 90.210938 -48.0625 95.265625 -50.203125 99.203125 -54.484375 C 103.148438 -58.773438 105.125 -64.773438 105.125 -72.484375 Z M 105.125 -72.484375 "/></g></g></g><g fill="#ffffff" fill-opacity="1"><g transform="translate(1630.144724, 500.297844)"><g><path d="M 103.0625 -48.578125 L 103.0625 0 L 81.484375 0 C 41.722656 0 21.84375 -19.789062 21.84375 -59.375 L 21.84375 -97.421875 L 3.859375 -97.421875 L 3.859375 -144.96875 L 21.84375 -144.96875 L 21.84375 -179.921875 L 78.90625 -179.921875 L 78.90625 -144.96875 L 102.5625 -144.96875 L 102.5625 -97.421875 L 78.90625 -97.421875 L 78.90625 -58.34375 C 78.90625 -54.914062 79.71875 -52.429688 81.34375 -50.890625 C 82.976562 -49.347656 85.679688 -48.578125 89.453125 -48.578125 Z M 103.0625 -48.578125 "/></g></g></g><g fill="#ffffff" fill-opacity="1"><g transform="translate(1729.357836, 500.297844)"><g><path d="M 41.640625 -156.53125 C 31.703125 -156.53125 23.734375 -159.1875 17.734375 -164.5 C 11.734375 -169.8125 8.734375 -176.492188 8.734375 -184.546875 C 8.734375 -192.773438 11.734375 -199.585938 17.734375 -204.984375 C 23.734375 -210.378906 31.703125 -213.078125 41.640625 -213.078125 C 51.410156 -213.078125 59.289062 -210.378906 65.28125 -204.984375 C 71.28125 -199.585938 74.28125 -192.773438 74.28125 -184.546875 C 74.28125 -176.492188 71.28125 -169.8125 65.28125 -164.5 C 59.289062 -159.1875 51.410156 -156.53125 41.640625 -156.53125 Z M 69.90625 -144.96875 L 69.90625 0 L 12.84375 0 L 12.84375 -144.96875 Z M 69.90625 -144.96875 "/></g></g></g><g fill="#ffffff" fill-opacity="1"><g transform="translate(1799.269497, 500.297844)"><g><path d="M 86.359375 -54.234375 L 109.5 -144.96875 L 170.15625 -144.96875 L 121.828125 0 L 50.640625 0 L 2.3125 -144.96875 L 62.96875 -144.96875 Z M 86.359375 -54.234375 "/></g></g></g><g fill="#ffffff" fill-opacity="1"><g transform="translate(1958.884754, 500.297844)"><g><path d="M 153.1875 -73.765625 C 153.1875 -69.828125 152.929688 -66.054688 152.421875 -62.453125 L 60.65625 -62.453125 C 61.507812 -49.941406 66.738281 -43.6875 76.34375 -43.6875 C 82.507812 -43.6875 86.960938 -46.515625 89.703125 -52.171875 L 150.109375 -52.171875 C 148.046875 -41.890625 143.71875 -32.679688 137.125 -24.546875 C 130.53125 -16.410156 122.21875 -9.984375 112.1875 -5.265625 C 102.164062 -0.554688 91.160156 1.796875 79.171875 1.796875 C 64.773438 1.796875 51.960938 -1.195312 40.734375 -7.1875 C 29.515625 -13.1875 20.773438 -21.796875 14.515625 -33.015625 C 8.265625 -44.242188 5.140625 -57.398438 5.140625 -72.484375 C 5.140625 -87.554688 8.265625 -100.703125 14.515625 -111.921875 C 20.773438 -123.148438 29.515625 -131.765625 40.734375 -137.765625 C 51.960938 -143.765625 64.773438 -146.765625 79.171875 -146.765625 C 93.554688 -146.765625 106.359375 -143.804688 117.578125 -137.890625 C 128.804688 -131.984375 137.546875 -123.546875 143.796875 -112.578125 C 150.054688 -101.609375 153.1875 -88.671875 153.1875 -73.765625 Z M 95.359375 -87.390625 C 95.359375 -92.191406 93.816406 -95.832031 90.734375 -98.3125 C 87.648438 -100.800781 83.796875 -102.046875 79.171875 -102.046875 C 69.054688 -102.046875 63.144531 -97.160156 61.4375 -87.390625 Z M 95.359375 -87.390625 "/></g></g></g><g fill="#ffffff" fill-opacity="1"><g transform="translate(2104.363345, 500.297844)"><g><path d="M 77.359375 1.796875 C 63.648438 1.796875 51.523438 -0.425781 40.984375 -4.875 C 30.453125 -9.332031 22.101562 -15.503906 15.9375 -23.390625 C 9.769531 -31.273438 6.253906 -40.1875 5.390625 -50.125 L 60.140625 -50.125 C 60.828125 -45.832031 62.671875 -42.660156 65.671875 -40.609375 C 68.671875 -38.554688 72.484375 -37.53125 77.109375 -37.53125 C 80.023438 -37.53125 82.335938 -38.171875 84.046875 -39.453125 C 85.765625 -40.734375 86.625 -42.316406 86.625 -44.203125 C 86.625 -47.460938 84.820312 -49.773438 81.21875 -51.140625 C 77.625 -52.515625 71.539062 -54.0625 62.96875 -55.78125 C 52.519531 -57.832031 43.910156 -60.054688 37.140625 -62.453125 C 30.367188 -64.859375 24.457031 -68.972656 19.40625 -74.796875 C 14.351562 -80.617188 11.828125 -88.671875 11.828125 -98.953125 C 11.828125 -107.867188 14.179688 -115.96875 18.890625 -123.25 C 23.597656 -130.53125 30.578125 -136.269531 39.828125 -140.46875 C 49.085938 -144.664062 60.316406 -146.765625 73.515625 -146.765625 C 93.046875 -146.765625 108.335938 -141.96875 119.390625 -132.375 C 130.441406 -122.78125 137.082031 -110.269531 139.3125 -94.84375 L 88.671875 -94.84375 C 87.816406 -98.78125 86.019531 -101.820312 83.28125 -103.96875 C 80.539062 -106.113281 76.851562 -107.1875 72.21875 -107.1875 C 69.3125 -107.1875 67.085938 -106.628906 65.546875 -105.515625 C 64.003906 -104.398438 63.234375 -102.726562 63.234375 -100.5 C 63.234375 -97.582031 65.03125 -95.394531 68.625 -93.9375 C 72.226562 -92.488281 77.96875 -90.992188 85.84375 -89.453125 C 96.300781 -87.390625 105.128906 -85.070312 112.328125 -82.5 C 119.523438 -79.9375 125.773438 -75.523438 131.078125 -69.265625 C 136.390625 -63.015625 139.046875 -54.40625 139.046875 -43.4375 C 139.046875 -34.875 136.5625 -27.164062 131.59375 -20.3125 C 126.625 -13.457031 119.46875 -8.054688 110.125 -4.109375 C 100.789062 -0.171875 89.867188 1.796875 77.359375 1.796875 Z M 77.359375 1.796875 "/></g></g></g><g fill="#ffffff" fill-opacity="1"><g transform="translate(10.941244, 614.120334)"><g><path d="M 33.390625 -44.671875 L 33.453125 -14.421875 C 33.410156 -12.335938 33.03125 -10.382812 32.3125 -8.5625 C 31.59375 -6.738281 30.585938 -5.144531 29.296875 -3.78125 C 28.015625 -2.425781 26.484375 -1.351562 24.703125 -0.5625 C 22.921875 0.21875 20.96875 0.609375 18.84375 0.609375 C 16.675781 0.609375 14.703125 0.222656 12.921875 -0.546875 C 11.140625 -1.328125 9.613281 -2.394531 8.34375 -3.75 C 7.070312 -5.113281 6.078125 -6.710938 5.359375 -8.546875 C 4.648438 -10.378906 4.285156 -12.335938 4.265625 -14.421875 L 4.328125 -44.671875 L 9.734375 -44.671875 L 9.84375 -14.421875 C 9.863281 -13.085938 10.070312 -11.804688 10.46875 -10.578125 C 10.875 -9.359375 11.445312 -8.273438 12.1875 -7.328125 C 12.9375 -6.390625 13.867188 -5.632812 14.984375 -5.0625 C 16.097656 -4.488281 17.382812 -4.203125 18.84375 -4.203125 C 20.289062 -4.203125 21.566406 -4.484375 22.671875 -5.046875 C 23.773438 -5.609375 24.703125 -6.363281 25.453125 -7.3125 C 26.203125 -8.269531 26.769531 -9.359375 27.15625 -10.578125 C 27.539062 -11.804688 27.753906 -13.085938 27.796875 -14.421875 L 27.890625 -44.671875 Z M 33.390625 -44.671875 "/></g></g></g><g fill="#ffffff" fill-opacity="1"><g transform="translate(45.50674, 614.120334)"><g><path d="M 10.4375 -33.203125 L 10.828125 -28.296875 C 12.035156 -30.015625 13.519531 -31.359375 15.28125 -32.328125 C 17.039062 -33.296875 19.003906 -33.789062 21.171875 -33.8125 C 22.910156 -33.8125 24.488281 -33.566406 25.90625 -33.078125 C 27.332031 -32.585938 28.546875 -31.820312 29.546875 -30.78125 C 30.546875 -29.738281 31.316406 -28.410156 31.859375 -26.796875 C 32.410156 -25.191406 32.6875 -23.285156 32.6875 -21.078125 L 32.6875 0 L 27 0 L 27 -20.953125 C 27 -22.429688 26.832031 -23.679688 26.5 -24.703125 C 26.175781 -25.722656 25.691406 -26.550781 25.046875 -27.1875 C 24.410156 -27.820312 23.625 -28.28125 22.6875 -28.5625 C 21.757812 -28.851562 20.691406 -29 19.484375 -29 C 17.578125 -29 15.90625 -28.519531 14.46875 -27.5625 C 13.03125 -26.613281 11.878906 -25.363281 11.015625 -23.8125 L 11.015625 0 L 5.34375 0 L 5.34375 -33.203125 Z M 10.4375 -33.203125 "/></g></g></g><g fill="#ffffff" fill-opacity="1"><g transform="translate(80.072235, 614.120334)"><g><path d="M 6.234375 -33.203125 L 23.203125 -33.203125 L 23.203125 -4.90625 L 34.03125 -4.90625 L 34.03125 0 L 6.234375 0 L 6.234375 -4.90625 L 17.515625 -4.90625 L 17.515625 -28.265625 L 6.234375 -28.265625 Z M 16.78125 -41.921875 C 16.78125 -42.859375 17.0625 -43.648438 17.625 -44.296875 C 18.1875 -44.941406 19.039062 -45.265625 20.1875 -45.265625 C 21.3125 -45.265625 22.160156 -44.941406 22.734375 -44.296875 C 23.304688 -43.648438 23.59375 -42.859375 23.59375 -41.921875 C 23.59375 -40.992188 23.304688 -40.222656 22.734375 -39.609375 C 22.160156 -38.992188 21.3125 -38.6875 20.1875 -38.6875 C 19.039062 -38.6875 18.1875 -38.992188 17.625 -39.609375 C 17.0625 -40.222656 16.78125 -40.992188 16.78125 -41.921875 Z M 16.78125 -41.921875 "/></g></g></g><g fill="#ffffff" fill-opacity="1"><g transform="translate(114.637731, 614.120334)"><g><path d="M 18.34375 -8.15625 L 18.875 -6.109375 L 19.421875 -8.15625 L 28.71875 -33.203125 L 34.515625 -33.203125 L 20.984375 0 L 16.65625 0 L 3 -33.203125 L 8.84375 -33.203125 Z M 18.34375 -8.15625 "/></g></g></g><g fill="#ffffff" fill-opacity="1"><g transform="translate(149.203227, 614.120334)"><g><path d="M 20 0.609375 C 17.675781 0.609375 15.535156 0.210938 13.578125 -0.578125 C 11.617188 -1.378906 9.941406 -2.492188 8.546875 -3.921875 C 7.160156 -5.359375 6.078125 -7.054688 5.296875 -9.015625 C 4.523438 -10.984375 4.140625 -13.125 4.140625 -15.4375 L 4.140625 -16.71875 C 4.140625 -19.40625 4.566406 -21.804688 5.421875 -23.921875 C 6.285156 -26.035156 7.425781 -27.820312 8.84375 -29.28125 C 10.269531 -30.75 11.890625 -31.867188 13.703125 -32.640625 C 15.515625 -33.421875 17.367188 -33.8125 19.265625 -33.8125 C 21.660156 -33.8125 23.753906 -33.394531 25.546875 -32.5625 C 27.335938 -31.738281 28.828125 -30.59375 30.015625 -29.125 C 31.203125 -27.664062 32.085938 -25.941406 32.671875 -23.953125 C 33.253906 -21.972656 33.546875 -19.828125 33.546875 -17.515625 L 33.546875 -14.96875 L 9.8125 -14.96875 C 9.875 -13.457031 10.164062 -12.035156 10.6875 -10.703125 C 11.207031 -9.378906 11.921875 -8.21875 12.828125 -7.21875 C 13.742188 -6.226562 14.835938 -5.445312 16.109375 -4.875 C 17.378906 -4.300781 18.78125 -4.015625 20.3125 -4.015625 C 22.34375 -4.015625 24.144531 -4.421875 25.71875 -5.234375 C 27.289062 -6.054688 28.597656 -7.144531 29.640625 -8.5 L 33.109375 -5.796875 C 32.554688 -4.960938 31.863281 -4.160156 31.03125 -3.390625 C 30.207031 -2.617188 29.253906 -1.9375 28.171875 -1.34375 C 27.085938 -0.75 25.859375 -0.273438 24.484375 0.078125 C 23.117188 0.429688 21.625 0.609375 20 0.609375 Z M 19.265625 -29.15625 C 18.117188 -29.15625 17.035156 -28.941406 16.015625 -28.515625 C 14.992188 -28.097656 14.070312 -27.484375 13.25 -26.671875 C 12.4375 -25.867188 11.75 -24.878906 11.1875 -23.703125 C 10.625 -22.523438 10.226562 -21.171875 10 -19.640625 L 27.859375 -19.640625 L 27.859375 -20.0625 C 27.796875 -21.164062 27.585938 -22.257812 27.234375 -23.34375 C 26.878906 -24.4375 26.351562 -25.410156 25.65625 -26.265625 C 24.957031 -27.128906 24.082031 -27.828125 23.03125 -28.359375 C 21.976562 -28.890625 20.722656 -29.15625 19.265625 -29.15625 Z M 19.265625 -29.15625 "/></g></g></g><g fill="#ffffff" fill-opacity="1"><g transform="translate(183.768714, 614.120334)"><g><path d="M 27.09375 -33.8125 C 27.625 -33.8125 28.175781 -33.796875 28.75 -33.765625 C 29.320312 -33.734375 29.867188 -33.679688 30.390625 -33.609375 C 30.910156 -33.546875 31.390625 -33.460938 31.828125 -33.359375 C 32.273438 -33.253906 32.640625 -33.140625 32.921875 -33.015625 L 32.15625 -27.46875 C 31.050781 -27.707031 30.003906 -27.882812 29.015625 -28 C 28.023438 -28.113281 26.988281 -28.171875 25.90625 -28.171875 C 23.238281 -28.171875 21.082031 -27.566406 19.4375 -26.359375 C 17.789062 -25.148438 16.578125 -23.460938 15.796875 -21.296875 L 15.796875 0 L 10.09375 0 L 10.09375 -33.203125 L 15.5 -33.203125 L 15.765625 -27.921875 C 17.117188 -29.742188 18.738281 -31.179688 20.625 -32.234375 C 22.519531 -33.285156 24.675781 -33.8125 27.09375 -33.8125 Z M 27.09375 -33.8125 "/></g></g></g><g fill="#ffffff" fill-opacity="1"><g transform="translate(218.334202, 614.120334)"><g><path d="M 27.40625 -8.8125 C 27.40625 -9.476562 27.269531 -10.082031 27 -10.625 C 26.738281 -11.175781 26.289062 -11.675781 25.65625 -12.125 C 25.019531 -12.570312 24.179688 -12.984375 23.140625 -13.359375 C 22.097656 -13.742188 20.796875 -14.085938 19.234375 -14.390625 C 17.335938 -14.773438 15.601562 -15.242188 14.03125 -15.796875 C 12.46875 -16.347656 11.128906 -17.007812 10.015625 -17.78125 C 8.898438 -18.550781 8.035156 -19.453125 7.421875 -20.484375 C 6.804688 -21.515625 6.5 -22.71875 6.5 -24.09375 C 6.5 -25.4375 6.816406 -26.695312 7.453125 -27.875 C 8.085938 -29.050781 8.976562 -30.078125 10.125 -30.953125 C 11.269531 -31.835938 12.632812 -32.535156 14.21875 -33.046875 C 15.800781 -33.554688 17.546875 -33.8125 19.453125 -33.8125 C 21.492188 -33.8125 23.332031 -33.546875 24.96875 -33.015625 C 26.613281 -32.484375 28.007812 -31.742188 29.15625 -30.796875 C 30.300781 -29.859375 31.179688 -28.757812 31.796875 -27.5 C 32.421875 -26.25 32.734375 -24.894531 32.734375 -23.4375 L 27.0625 -23.4375 C 27.0625 -24.15625 26.875 -24.859375 26.5 -25.546875 C 26.132812 -26.234375 25.625 -26.84375 24.96875 -27.375 C 24.320312 -27.90625 23.53125 -28.332031 22.59375 -28.65625 C 21.664062 -28.988281 20.617188 -29.15625 19.453125 -29.15625 C 18.242188 -29.15625 17.179688 -29.019531 16.265625 -28.75 C 15.359375 -28.488281 14.601562 -28.128906 14 -27.671875 C 13.40625 -27.222656 12.953125 -26.703125 12.640625 -26.109375 C 12.335938 -25.515625 12.1875 -24.898438 12.1875 -24.265625 C 12.1875 -23.617188 12.304688 -23.035156 12.546875 -22.515625 C 12.796875 -22.003906 13.222656 -21.546875 13.828125 -21.140625 C 14.429688 -20.734375 15.238281 -20.363281 16.25 -20.03125 C 17.257812 -19.707031 18.539062 -19.394531 20.09375 -19.09375 C 22.144531 -18.65625 23.976562 -18.15625 25.59375 -17.59375 C 27.207031 -17.03125 28.566406 -16.351562 29.671875 -15.5625 C 30.773438 -14.78125 31.617188 -13.867188 32.203125 -12.828125 C 32.785156 -11.785156 33.078125 -10.578125 33.078125 -9.203125 C 33.078125 -7.734375 32.742188 -6.394531 32.078125 -5.1875 C 31.410156 -3.976562 30.484375 -2.941406 29.296875 -2.078125 C 28.117188 -1.222656 26.695312 -0.5625 25.03125 -0.09375 C 23.375 0.375 21.566406 0.609375 19.609375 0.609375 C 17.359375 0.609375 15.351562 0.304688 13.59375 -0.296875 C 11.832031 -0.898438 10.34375 -1.695312 9.125 -2.6875 C 7.90625 -3.675781 6.972656 -4.820312 6.328125 -6.125 C 5.691406 -7.4375 5.375 -8.800781 5.375 -10.21875 L 11.046875 -10.21875 C 11.128906 -9.050781 11.441406 -8.066406 11.984375 -7.265625 C 12.523438 -6.472656 13.195312 -5.832031 14 -5.34375 C 14.8125 -4.851562 15.707031 -4.503906 16.6875 -4.296875 C 17.675781 -4.085938 18.648438 -3.984375 19.609375 -3.984375 C 22.003906 -3.984375 23.894531 -4.421875 25.28125 -5.296875 C 26.675781 -6.179688 27.382812 -7.351562 27.40625 -8.8125 Z M 27.40625 -8.8125 "/></g></g></g><g fill="#ffffff" fill-opacity="1"><g transform="translate(252.89969, 614.120334)"><g><path d="M 6.234375 -33.203125 L 23.203125 -33.203125 L 23.203125 -4.90625 L 34.03125 -4.90625 L 34.03125 0 L 6.234375 0 L 6.234375 -4.90625 L 17.515625 -4.90625 L 17.515625 -28.265625 L 6.234375 -28.265625 Z M 16.78125 -41.921875 C 16.78125 -42.859375 17.0625 -43.648438 17.625 -44.296875 C 18.1875 -44.941406 19.039062 -45.265625 20.1875 -45.265625 C 21.3125 -45.265625 22.160156 -44.941406 22.734375 -44.296875 C 23.304688 -43.648438 23.59375 -42.859375 23.59375 -41.921875 C 23.59375 -40.992188 23.304688 -40.222656 22.734375 -39.609375 C 22.160156 -38.992188 21.3125 -38.6875 20.1875 -38.6875 C 19.039062 -38.6875 18.1875 -38.992188 17.625 -39.609375 C 17.0625 -40.222656 16.78125 -40.992188 16.78125 -41.921875 Z M 16.78125 -41.921875 "/></g></g></g><g fill="#ffffff" fill-opacity="1"><g transform="translate(287.465177, 614.120334)"><g><path d="M 18.78125 -41.234375 L 18.78125 -33.203125 L 31.421875 -33.203125 L 31.421875 -28.8125 L 18.78125 -28.8125 L 18.78125 -10.765625 C 18.78125 -9.484375 18.941406 -8.421875 19.265625 -7.578125 C 19.597656 -6.742188 20.050781 -6.070312 20.625 -5.5625 C 21.195312 -5.0625 21.851562 -4.707031 22.59375 -4.5 C 23.34375 -4.300781 24.140625 -4.203125 24.984375 -4.203125 C 25.597656 -4.203125 26.226562 -4.238281 26.875 -4.3125 C 27.53125 -4.382812 28.171875 -4.46875 28.796875 -4.5625 C 29.421875 -4.664062 30.003906 -4.773438 30.546875 -4.890625 C 31.085938 -5.003906 31.53125 -5.101562 31.875 -5.1875 L 32.6875 -1.171875 C 32.207031 -0.878906 31.628906 -0.625 30.953125 -0.40625 C 30.285156 -0.195312 29.550781 -0.015625 28.75 0.140625 C 27.957031 0.296875 27.113281 0.410156 26.21875 0.484375 C 25.332031 0.566406 24.445312 0.609375 23.5625 0.609375 C 22.09375 0.609375 20.71875 0.398438 19.4375 -0.015625 C 18.15625 -0.429688 17.046875 -1.09375 16.109375 -2 C 15.171875 -2.914062 14.429688 -4.09375 13.890625 -5.53125 C 13.347656 -6.976562 13.078125 -8.722656 13.078125 -10.765625 L 13.078125 -28.8125 L 4.359375 -28.8125 L 4.359375 -33.203125 L 13.078125 -33.203125 L 13.078125 -41.234375 Z M 18.78125 -41.234375 "/></g></g></g><g fill="#ffffff" fill-opacity="1"><g transform="translate(322.030665, 614.120334)"><g><path d="M 17.546875 -11.78125 L 19.03125 -7.765625 L 29.15625 -33.203125 L 35.5 -33.203125 L 18.65625 5.125 C 18.269531 5.976562 17.773438 6.882812 17.171875 7.84375 C 16.566406 8.8125 15.832031 9.703125 14.96875 10.515625 C 14.113281 11.335938 13.113281 12.023438 11.96875 12.578125 C 10.820312 13.128906 9.503906 13.40625 8.015625 13.40625 C 7.742188 13.40625 7.441406 13.390625 7.109375 13.359375 C 6.785156 13.328125 6.457031 13.285156 6.125 13.234375 C 5.800781 13.179688 5.492188 13.125 5.203125 13.0625 C 4.921875 13.007812 4.691406 12.960938 4.515625 12.921875 L 5.4375 8.28125 C 5.570312 8.28125 5.757812 8.289062 6 8.3125 C 6.25 8.332031 6.507812 8.351562 6.78125 8.375 C 7.050781 8.394531 7.304688 8.410156 7.546875 8.421875 C 7.796875 8.429688 7.988281 8.4375 8.125 8.4375 C 8.90625 8.4375 9.617188 8.222656 10.265625 7.796875 C 10.910156 7.367188 11.484375 6.859375 11.984375 6.265625 C 12.484375 5.671875 12.910156 5.054688 13.265625 4.421875 C 13.628906 3.785156 13.910156 3.265625 14.109375 2.859375 L 16.390625 -1.5625 L 2.09375 -33.203125 L 8.4375 -33.203125 Z M 17.546875 -11.78125 "/></g></g></g><g fill="#ffffff" fill-opacity="1"><g transform="translate(356.596152, 614.120334)"><g/></g></g><g fill="#ffffff" fill-opacity="1"><g transform="translate(391.16164, 614.120334)"><g><path d="M 3.75 -16.90625 C 3.75 -19.300781 4.09375 -21.523438 4.78125 -23.578125 C 5.476562 -25.640625 6.476562 -27.425781 7.78125 -28.9375 C 9.082031 -30.445312 10.660156 -31.632812 12.515625 -32.5 C 14.378906 -33.375 16.476562 -33.8125 18.8125 -33.8125 C 21.164062 -33.8125 23.273438 -33.375 25.140625 -32.5 C 27.015625 -31.632812 28.597656 -30.445312 29.890625 -28.9375 C 31.191406 -27.425781 32.191406 -25.640625 32.890625 -23.578125 C 33.585938 -21.523438 33.9375 -19.300781 33.9375 -16.90625 L 33.9375 -16.234375 C 33.9375 -13.835938 33.585938 -11.613281 32.890625 -9.5625 C 32.191406 -7.519531 31.191406 -5.742188 29.890625 -4.234375 C 28.597656 -2.722656 27.019531 -1.535156 25.15625 -0.671875 C 23.300781 0.179688 21.207031 0.609375 18.875 0.609375 C 16.519531 0.609375 14.40625 0.179688 12.53125 -0.671875 C 10.664062 -1.535156 9.082031 -2.722656 7.78125 -4.234375 C 6.476562 -5.742188 5.476562 -7.519531 4.78125 -9.5625 C 4.09375 -11.613281 3.75 -13.835938 3.75 -16.234375 Z M 9.421875 -16.234375 C 9.421875 -14.597656 9.613281 -13.035156 10 -11.546875 C 10.394531 -10.066406 10.984375 -8.765625 11.765625 -7.640625 C 12.554688 -6.515625 13.546875 -5.625 14.734375 -4.96875 C 15.921875 -4.3125 17.300781 -3.984375 18.875 -3.984375 C 20.425781 -3.984375 21.789062 -4.3125 22.96875 -4.96875 C 24.144531 -5.625 25.125 -6.515625 25.90625 -7.640625 C 26.695312 -8.765625 27.285156 -10.066406 27.671875 -11.546875 C 28.066406 -13.035156 28.265625 -14.597656 28.265625 -16.234375 L 28.265625 -16.90625 C 28.265625 -18.519531 28.0625 -20.066406 27.65625 -21.546875 C 27.257812 -23.035156 26.664062 -24.34375 25.875 -25.46875 C 25.09375 -26.59375 24.113281 -27.488281 22.9375 -28.15625 C 21.757812 -28.820312 20.382812 -29.15625 18.8125 -29.15625 C 17.238281 -29.15625 15.867188 -28.820312 14.703125 -28.15625 C 13.535156 -27.488281 12.554688 -26.59375 11.765625 -25.46875 C 10.984375 -24.34375 10.394531 -23.035156 10 -21.546875 C 9.613281 -20.066406 9.421875 -18.519531 9.421875 -16.90625 Z M 9.421875 -16.234375 "/></g></g></g><g fill="#ffffff" fill-opacity="1"><g transform="translate(425.727127, 614.120334)"><g><path d="M 13.8125 0 L 13.8125 -28.8125 L 4.671875 -28.8125 L 4.671875 -33.203125 L 13.8125 -33.203125 L 13.8125 -35.53125 C 13.8125 -37.65625 14.125 -39.519531 14.75 -41.125 C 15.375 -42.738281 16.253906 -44.085938 17.390625 -45.171875 C 18.523438 -46.253906 19.890625 -47.070312 21.484375 -47.625 C 23.078125 -48.175781 24.851562 -48.453125 26.8125 -48.453125 C 28.164062 -48.453125 29.484375 -48.335938 30.765625 -48.109375 C 32.046875 -47.890625 33.359375 -47.601562 34.703125 -47.25 L 34.03125 -42.5625 C 33.1875 -42.84375 32.207031 -43.09375 31.09375 -43.3125 C 29.976562 -43.53125 28.789062 -43.640625 27.53125 -43.640625 C 24.863281 -43.617188 22.859375 -42.941406 21.515625 -41.609375 C 20.179688 -40.273438 19.515625 -38.25 19.515625 -35.53125 L 19.515625 -33.203125 L 32.3125 -33.203125 L 32.3125 -28.8125 L 19.515625 -28.8125 L 19.515625 0 Z M 13.8125 0 "/></g></g></g><g fill="#ffffff" fill-opacity="1"><g transform="translate(460.323287, 614.120334)"><g/></g></g><g fill="#ffffff" fill-opacity="1"><g transform="translate(494.888774, 614.120334)"><g><path d="M 28.71875 -11.296875 C 28.71875 -12.660156 28.40625 -13.8125 27.78125 -14.75 C 27.15625 -15.695312 26.351562 -16.492188 25.375 -17.140625 C 24.394531 -17.785156 23.316406 -18.320312 22.140625 -18.75 C 20.960938 -19.175781 19.832031 -19.566406 18.75 -19.921875 C 17.175781 -20.429688 15.570312 -21.039062 13.9375 -21.75 C 12.3125 -22.46875 10.828125 -23.347656 9.484375 -24.390625 C 8.148438 -25.429688 7.054688 -26.660156 6.203125 -28.078125 C 5.359375 -29.503906 4.9375 -31.179688 4.9375 -33.109375 C 4.9375 -35.035156 5.359375 -36.753906 6.203125 -38.265625 C 7.054688 -39.773438 8.164062 -41.050781 9.53125 -42.09375 C 10.90625 -43.144531 12.460938 -43.941406 14.203125 -44.484375 C 15.941406 -45.023438 17.691406 -45.296875 19.453125 -45.296875 C 21.398438 -45.296875 23.269531 -44.972656 25.0625 -44.328125 C 26.863281 -43.679688 28.457031 -42.773438 29.84375 -41.609375 C 31.238281 -40.441406 32.351562 -39.03125 33.1875 -37.375 C 34.03125 -35.71875 34.472656 -33.867188 34.515625 -31.828125 L 28.6875 -31.828125 C 28.53125 -33.109375 28.210938 -34.273438 27.734375 -35.328125 C 27.265625 -36.390625 26.640625 -37.296875 25.859375 -38.046875 C 25.085938 -38.804688 24.164062 -39.394531 23.09375 -39.8125 C 22.019531 -40.226562 20.804688 -40.4375 19.453125 -40.4375 C 18.367188 -40.4375 17.3125 -40.28125 16.28125 -39.96875 C 15.25 -39.664062 14.328125 -39.207031 13.515625 -38.59375 C 12.710938 -37.988281 12.066406 -37.234375 11.578125 -36.328125 C 11.097656 -35.429688 10.859375 -34.390625 10.859375 -33.203125 C 10.878906 -31.910156 11.207031 -30.816406 11.84375 -29.921875 C 12.476562 -29.035156 13.28125 -28.285156 14.25 -27.671875 C 15.226562 -27.054688 16.28125 -26.546875 17.40625 -26.140625 C 18.539062 -25.734375 19.613281 -25.375 20.625 -25.0625 C 21.726562 -24.71875 22.84375 -24.328125 23.96875 -23.890625 C 25.09375 -23.453125 26.175781 -22.945312 27.21875 -22.375 C 28.257812 -21.800781 29.226562 -21.15625 30.125 -20.4375 C 31.03125 -19.71875 31.820312 -18.898438 32.5 -17.984375 C 33.175781 -17.078125 33.703125 -16.078125 34.078125 -14.984375 C 34.453125 -13.890625 34.640625 -12.679688 34.640625 -11.359375 C 34.640625 -9.347656 34.191406 -7.59375 33.296875 -6.09375 C 32.410156 -4.601562 31.257812 -3.363281 29.84375 -2.375 C 28.4375 -1.382812 26.84375 -0.640625 25.0625 -0.140625 C 23.289062 0.359375 21.515625 0.609375 19.734375 0.609375 C 17.742188 0.609375 15.796875 0.300781 13.890625 -0.3125 C 11.992188 -0.925781 10.289062 -1.804688 8.78125 -2.953125 C 7.28125 -4.109375 6.0625 -5.519531 5.125 -7.1875 C 4.1875 -8.863281 3.6875 -10.765625 3.625 -12.890625 L 9.421875 -12.890625 C 9.609375 -11.492188 9.988281 -10.257812 10.5625 -9.1875 C 11.132812 -8.113281 11.867188 -7.203125 12.765625 -6.453125 C 13.660156 -5.710938 14.695312 -5.148438 15.875 -4.765625 C 17.050781 -4.390625 18.335938 -4.203125 19.734375 -4.203125 C 20.835938 -4.203125 21.925781 -4.335938 23 -4.609375 C 24.070312 -4.890625 25.023438 -5.320312 25.859375 -5.90625 C 26.703125 -6.488281 27.390625 -7.222656 27.921875 -8.109375 C 28.453125 -9.003906 28.71875 -10.066406 28.71875 -11.296875 Z M 28.71875 -11.296875 "/></g></g></g><g fill="#ffffff" fill-opacity="1"><g transform="translate(529.454262, 614.120334)"><g><path d="M 17.546875 -11.78125 L 19.03125 -7.765625 L 29.15625 -33.203125 L 35.5 -33.203125 L 18.65625 5.125 C 18.269531 5.976562 17.773438 6.882812 17.171875 7.84375 C 16.566406 8.8125 15.832031 9.703125 14.96875 10.515625 C 14.113281 11.335938 13.113281 12.023438 11.96875 12.578125 C 10.820312 13.128906 9.503906 13.40625 8.015625 13.40625 C 7.742188 13.40625 7.441406 13.390625 7.109375 13.359375 C 6.785156 13.328125 6.457031 13.285156 6.125 13.234375 C 5.800781 13.179688 5.492188 13.125 5.203125 13.0625 C 4.921875 13.007812 4.691406 12.960938 4.515625 12.921875 L 5.4375 8.28125 C 5.570312 8.28125 5.757812 8.289062 6 8.3125 C 6.25 8.332031 6.507812 8.351562 6.78125 8.375 C 7.050781 8.394531 7.304688 8.410156 7.546875 8.421875 C 7.796875 8.429688 7.988281 8.4375 8.125 8.4375 C 8.90625 8.4375 9.617188 8.222656 10.265625 7.796875 C 10.910156 7.367188 11.484375 6.859375 11.984375 6.265625 C 12.484375 5.671875 12.910156 5.054688 13.265625 4.421875 C 13.628906 3.785156 13.910156 3.265625 14.109375 2.859375 L 16.390625 -1.5625 L 2.09375 -33.203125 L 8.4375 -33.203125 Z M 17.546875 -11.78125 "/></g></g></g><g fill="#ffffff" fill-opacity="1"><g transform="translate(564.019749, 614.120334)"><g><path d="M 4.265625 -16.875 C 4.265625 -19.351562 4.578125 -21.628906 5.203125 -23.703125 C 5.828125 -25.773438 6.71875 -27.554688 7.875 -29.046875 C 9.03125 -30.546875 10.425781 -31.710938 12.0625 -32.546875 C 13.695312 -33.390625 15.523438 -33.8125 17.546875 -33.8125 C 19.535156 -33.8125 21.269531 -33.476562 22.75 -32.8125 C 24.238281 -32.15625 25.523438 -31.191406 26.609375 -29.921875 L 26.609375 -47.140625 L 32.28125 -47.140625 L 32.28125 0 L 27.0625 0 L 26.8125 -3.5 C 25.707031 -2.144531 24.390625 -1.117188 22.859375 -0.421875 C 21.328125 0.265625 19.535156 0.609375 17.484375 0.609375 C 15.484375 0.609375 13.671875 0.179688 12.046875 -0.671875 C 10.421875 -1.535156 9.035156 -2.722656 7.890625 -4.234375 C 6.742188 -5.742188 5.851562 -7.523438 5.21875 -9.578125 C 4.582031 -11.640625 4.265625 -13.859375 4.265625 -16.234375 Z M 9.9375 -16.234375 C 9.9375 -14.617188 10.109375 -13.082031 10.453125 -11.625 C 10.804688 -10.175781 11.34375 -8.898438 12.0625 -7.796875 C 12.789062 -6.691406 13.71875 -5.816406 14.84375 -5.171875 C 15.976562 -4.523438 17.332031 -4.203125 18.90625 -4.203125 C 19.863281 -4.203125 20.726562 -4.3125 21.5 -4.53125 C 22.28125 -4.757812 22.988281 -5.082031 23.625 -5.5 C 24.257812 -5.925781 24.820312 -6.429688 25.3125 -7.015625 C 25.800781 -7.597656 26.234375 -8.242188 26.609375 -8.953125 L 26.609375 -24.359375 C 25.867188 -25.710938 24.875 -26.820312 23.625 -27.6875 C 22.375 -28.5625 20.820312 -29 18.96875 -29 C 17.363281 -29 15.992188 -28.671875 14.859375 -28.015625 C 13.722656 -27.359375 12.789062 -26.472656 12.0625 -25.359375 C 11.34375 -24.242188 10.804688 -22.953125 10.453125 -21.484375 C 10.109375 -20.023438 9.9375 -18.488281 9.9375 -16.875 Z M 9.9375 -16.234375 "/></g></g></g><g fill="#ffffff" fill-opacity="1"><g transform="translate(598.585237, 614.120334)"><g><path d="M 10.4375 -33.203125 L 10.828125 -28.296875 C 12.035156 -30.015625 13.519531 -31.359375 15.28125 -32.328125 C 17.039062 -33.296875 19.003906 -33.789062 21.171875 -33.8125 C 22.910156 -33.8125 24.488281 -33.566406 25.90625 -33.078125 C 27.332031 -32.585938 28.546875 -31.820312 29.546875 -30.78125 C 30.546875 -29.738281 31.316406 -28.410156 31.859375 -26.796875 C 32.410156 -25.191406 32.6875 -23.285156 32.6875 -21.078125 L 32.6875 0 L 27 0 L 27 -20.953125 C 27 -22.429688 26.832031 -23.679688 26.5 -24.703125 C 26.175781 -25.722656 25.691406 -26.550781 25.046875 -27.1875 C 24.410156 -27.820312 23.625 -28.28125 22.6875 -28.5625 C 21.757812 -28.851562 20.691406 -29 19.484375 -29 C 17.578125 -29 15.90625 -28.519531 14.46875 -27.5625 C 13.03125 -26.613281 11.878906 -25.363281 11.015625 -23.8125 L 11.015625 0 L 5.34375 0 L 5.34375 -33.203125 Z M 10.4375 -33.203125 "/></g></g></g><g fill="#ffffff" fill-opacity="1"><g transform="translate(633.150724, 614.120334)"><g><path d="M 20 0.609375 C 17.675781 0.609375 15.535156 0.210938 13.578125 -0.578125 C 11.617188 -1.378906 9.941406 -2.492188 8.546875 -3.921875 C 7.160156 -5.359375 6.078125 -7.054688 5.296875 -9.015625 C 4.523438 -10.984375 4.140625 -13.125 4.140625 -15.4375 L 4.140625 -16.71875 C 4.140625 -19.40625 4.566406 -21.804688 5.421875 -23.921875 C 6.285156 -26.035156 7.425781 -27.820312 8.84375 -29.28125 C 10.269531 -30.75 11.890625 -31.867188 13.703125 -32.640625 C 15.515625 -33.421875 17.367188 -33.8125 19.265625 -33.8125 C 21.660156 -33.8125 23.753906 -33.394531 25.546875 -32.5625 C 27.335938 -31.738281 28.828125 -30.59375 30.015625 -29.125 C 31.203125 -27.664062 32.085938 -25.941406 32.671875 -23.953125 C 33.253906 -21.972656 33.546875 -19.828125 33.546875 -17.515625 L 33.546875 -14.96875 L 9.8125 -14.96875 C 9.875 -13.457031 10.164062 -12.035156 10.6875 -10.703125 C 11.207031 -9.378906 11.921875 -8.21875 12.828125 -7.21875 C 13.742188 -6.226562 14.835938 -5.445312 16.109375 -4.875 C 17.378906 -4.300781 18.78125 -4.015625 20.3125 -4.015625 C 22.34375 -4.015625 24.144531 -4.421875 25.71875 -5.234375 C 27.289062 -6.054688 28.597656 -7.144531 29.640625 -8.5 L 33.109375 -5.796875 C 32.554688 -4.960938 31.863281 -4.160156 31.03125 -3.390625 C 30.207031 -2.617188 29.253906 -1.9375 28.171875 -1.34375 C 27.085938 -0.75 25.859375 -0.273438 24.484375 0.078125 C 23.117188 0.429688 21.625 0.609375 20 0.609375 Z M 19.265625 -29.15625 C 18.117188 -29.15625 17.035156 -28.941406 16.015625 -28.515625 C 14.992188 -28.097656 14.070312 -27.484375 13.25 -26.671875 C 12.4375 -25.867188 11.75 -24.878906 11.1875 -23.703125 C 10.625 -22.523438 10.226562 -21.171875 10 -19.640625 L 27.859375 -19.640625 L 27.859375 -20.0625 C 27.796875 -21.164062 27.585938 -22.257812 27.234375 -23.34375 C 26.878906 -24.4375 26.351562 -25.410156 25.65625 -26.265625 C 24.957031 -27.128906 24.082031 -27.828125 23.03125 -28.359375 C 21.976562 -28.890625 20.722656 -29.15625 19.265625 -29.15625 Z M 19.265625 -29.15625 "/></g></g></g><g fill="#ffffff" fill-opacity="1"><g transform="translate(667.716247, 614.120334)"><g><path d="M 17.546875 -11.78125 L 19.03125 -7.765625 L 29.15625 -33.203125 L 35.5 -33.203125 L 18.65625 5.125 C 18.269531 5.976562 17.773438 6.882812 17.171875 7.84375 C 16.566406 8.8125 15.832031 9.703125 14.96875 10.515625 C 14.113281 11.335938 13.113281 12.023438 11.96875 12.578125 C 10.820312 13.128906 9.503906 13.40625 8.015625 13.40625 C 7.742188 13.40625 7.441406 13.390625 7.109375 13.359375 C 6.785156 13.328125 6.457031 13.285156 6.125 13.234375 C 5.800781 13.179688 5.492188 13.125 5.203125 13.0625 C 4.921875 13.007812 4.691406 12.960938 4.515625 12.921875 L 5.4375 8.28125 C 5.570312 8.28125 5.757812 8.289062 6 8.3125 C 6.25 8.332031 6.507812 8.351562 6.78125 8.375 C 7.050781 8.394531 7.304688 8.410156 7.546875 8.421875 C 7.796875 8.429688 7.988281 8.4375 8.125 8.4375 C 8.90625 8.4375 9.617188 8.222656 10.265625 7.796875 C 10.910156 7.367188 11.484375 6.859375 11.984375 6.265625 C 12.484375 5.671875 12.910156 5.054688 13.265625 4.421875 C 13.628906 3.785156 13.910156 3.265625 14.109375 2.859375 L 16.390625 -1.5625 L 2.09375 -33.203125 L 8.4375 -33.203125 Z M 17.546875 -11.78125 "/></g></g></g></svg>